%TF.GenerationSoftware,KiCad,Pcbnew,7.0.10*%
%TF.CreationDate,2024-04-03T10:39:24+02:00*%
%TF.ProjectId,Humi,48756d69-2e6b-4696-9361-645f70636258,rev?*%
%TF.SameCoordinates,Original*%
%TF.FileFunction,Legend,Top*%
%TF.FilePolarity,Positive*%
%FSLAX46Y46*%
G04 Gerber Fmt 4.6, Leading zero omitted, Abs format (unit mm)*
G04 Created by KiCad (PCBNEW 7.0.10) date 2024-04-03 10:39:24*
%MOMM*%
%LPD*%
G01*
G04 APERTURE LIST*
%ADD10C,0.150000*%
%ADD11C,0.100000*%
%ADD12C,0.120000*%
G04 APERTURE END LIST*
D10*
X143722493Y-97969819D02*
X143722493Y-98684104D01*
X143722493Y-98684104D02*
X143674874Y-98826961D01*
X143674874Y-98826961D02*
X143579636Y-98922200D01*
X143579636Y-98922200D02*
X143436779Y-98969819D01*
X143436779Y-98969819D02*
X143341541Y-98969819D01*
X144674874Y-98969819D02*
X144198684Y-98969819D01*
X144198684Y-98969819D02*
X144198684Y-97969819D01*
X145579636Y-98874580D02*
X145532017Y-98922200D01*
X145532017Y-98922200D02*
X145389160Y-98969819D01*
X145389160Y-98969819D02*
X145293922Y-98969819D01*
X145293922Y-98969819D02*
X145151065Y-98922200D01*
X145151065Y-98922200D02*
X145055827Y-98826961D01*
X145055827Y-98826961D02*
X145008208Y-98731723D01*
X145008208Y-98731723D02*
X144960589Y-98541247D01*
X144960589Y-98541247D02*
X144960589Y-98398390D01*
X144960589Y-98398390D02*
X145008208Y-98207914D01*
X145008208Y-98207914D02*
X145055827Y-98112676D01*
X145055827Y-98112676D02*
X145151065Y-98017438D01*
X145151065Y-98017438D02*
X145293922Y-97969819D01*
X145293922Y-97969819D02*
X145389160Y-97969819D01*
X145389160Y-97969819D02*
X145532017Y-98017438D01*
X145532017Y-98017438D02*
X145579636Y-98065057D01*
X146293922Y-97969819D02*
X146293922Y-98684104D01*
X146293922Y-98684104D02*
X146246303Y-98826961D01*
X146246303Y-98826961D02*
X146151065Y-98922200D01*
X146151065Y-98922200D02*
X146008208Y-98969819D01*
X146008208Y-98969819D02*
X145912970Y-98969819D01*
X147246303Y-98969819D02*
X146770113Y-98969819D01*
X146770113Y-98969819D02*
X146770113Y-97969819D01*
X148151065Y-98874580D02*
X148103446Y-98922200D01*
X148103446Y-98922200D02*
X147960589Y-98969819D01*
X147960589Y-98969819D02*
X147865351Y-98969819D01*
X147865351Y-98969819D02*
X147722494Y-98922200D01*
X147722494Y-98922200D02*
X147627256Y-98826961D01*
X147627256Y-98826961D02*
X147579637Y-98731723D01*
X147579637Y-98731723D02*
X147532018Y-98541247D01*
X147532018Y-98541247D02*
X147532018Y-98398390D01*
X147532018Y-98398390D02*
X147579637Y-98207914D01*
X147579637Y-98207914D02*
X147627256Y-98112676D01*
X147627256Y-98112676D02*
X147722494Y-98017438D01*
X147722494Y-98017438D02*
X147865351Y-97969819D01*
X147865351Y-97969819D02*
X147960589Y-97969819D01*
X147960589Y-97969819D02*
X148103446Y-98017438D01*
X148103446Y-98017438D02*
X148151065Y-98065057D01*
X148865351Y-97969819D02*
X148865351Y-98684104D01*
X148865351Y-98684104D02*
X148817732Y-98826961D01*
X148817732Y-98826961D02*
X148722494Y-98922200D01*
X148722494Y-98922200D02*
X148579637Y-98969819D01*
X148579637Y-98969819D02*
X148484399Y-98969819D01*
X149817732Y-98969819D02*
X149341542Y-98969819D01*
X149341542Y-98969819D02*
X149341542Y-97969819D01*
X150722494Y-98874580D02*
X150674875Y-98922200D01*
X150674875Y-98922200D02*
X150532018Y-98969819D01*
X150532018Y-98969819D02*
X150436780Y-98969819D01*
X150436780Y-98969819D02*
X150293923Y-98922200D01*
X150293923Y-98922200D02*
X150198685Y-98826961D01*
X150198685Y-98826961D02*
X150151066Y-98731723D01*
X150151066Y-98731723D02*
X150103447Y-98541247D01*
X150103447Y-98541247D02*
X150103447Y-98398390D01*
X150103447Y-98398390D02*
X150151066Y-98207914D01*
X150151066Y-98207914D02*
X150198685Y-98112676D01*
X150198685Y-98112676D02*
X150293923Y-98017438D01*
X150293923Y-98017438D02*
X150436780Y-97969819D01*
X150436780Y-97969819D02*
X150532018Y-97969819D01*
X150532018Y-97969819D02*
X150674875Y-98017438D01*
X150674875Y-98017438D02*
X150722494Y-98065057D01*
X151436780Y-97969819D02*
X151436780Y-98684104D01*
X151436780Y-98684104D02*
X151389161Y-98826961D01*
X151389161Y-98826961D02*
X151293923Y-98922200D01*
X151293923Y-98922200D02*
X151151066Y-98969819D01*
X151151066Y-98969819D02*
X151055828Y-98969819D01*
X152389161Y-98969819D02*
X151912971Y-98969819D01*
X151912971Y-98969819D02*
X151912971Y-97969819D01*
X153293923Y-98874580D02*
X153246304Y-98922200D01*
X153246304Y-98922200D02*
X153103447Y-98969819D01*
X153103447Y-98969819D02*
X153008209Y-98969819D01*
X153008209Y-98969819D02*
X152865352Y-98922200D01*
X152865352Y-98922200D02*
X152770114Y-98826961D01*
X152770114Y-98826961D02*
X152722495Y-98731723D01*
X152722495Y-98731723D02*
X152674876Y-98541247D01*
X152674876Y-98541247D02*
X152674876Y-98398390D01*
X152674876Y-98398390D02*
X152722495Y-98207914D01*
X152722495Y-98207914D02*
X152770114Y-98112676D01*
X152770114Y-98112676D02*
X152865352Y-98017438D01*
X152865352Y-98017438D02*
X153008209Y-97969819D01*
X153008209Y-97969819D02*
X153103447Y-97969819D01*
X153103447Y-97969819D02*
X153246304Y-98017438D01*
X153246304Y-98017438D02*
X153293923Y-98065057D01*
D11*
X143931250Y-86931250D02*
X143681250Y-86931250D01*
X143931250Y-86931250D02*
X141556250Y-89306250D01*
X143931250Y-86931250D02*
X143931250Y-87181250D01*
D10*
X123238095Y-109154819D02*
X123238095Y-108154819D01*
X123238095Y-108631009D02*
X123809523Y-108631009D01*
X123809523Y-109154819D02*
X123809523Y-108154819D01*
X124238095Y-108250057D02*
X124285714Y-108202438D01*
X124285714Y-108202438D02*
X124380952Y-108154819D01*
X124380952Y-108154819D02*
X124619047Y-108154819D01*
X124619047Y-108154819D02*
X124714285Y-108202438D01*
X124714285Y-108202438D02*
X124761904Y-108250057D01*
X124761904Y-108250057D02*
X124809523Y-108345295D01*
X124809523Y-108345295D02*
X124809523Y-108440533D01*
X124809523Y-108440533D02*
X124761904Y-108583390D01*
X124761904Y-108583390D02*
X124190476Y-109154819D01*
X124190476Y-109154819D02*
X124809523Y-109154819D01*
X170238095Y-109154819D02*
X170238095Y-108154819D01*
X170238095Y-108631009D02*
X170809523Y-108631009D01*
X170809523Y-109154819D02*
X170809523Y-108154819D01*
X171809523Y-109154819D02*
X171238095Y-109154819D01*
X171523809Y-109154819D02*
X171523809Y-108154819D01*
X171523809Y-108154819D02*
X171428571Y-108297676D01*
X171428571Y-108297676D02*
X171333333Y-108392914D01*
X171333333Y-108392914D02*
X171238095Y-108440533D01*
X130333333Y-102354819D02*
X130000000Y-101878628D01*
X129761905Y-102354819D02*
X129761905Y-101354819D01*
X129761905Y-101354819D02*
X130142857Y-101354819D01*
X130142857Y-101354819D02*
X130238095Y-101402438D01*
X130238095Y-101402438D02*
X130285714Y-101450057D01*
X130285714Y-101450057D02*
X130333333Y-101545295D01*
X130333333Y-101545295D02*
X130333333Y-101688152D01*
X130333333Y-101688152D02*
X130285714Y-101783390D01*
X130285714Y-101783390D02*
X130238095Y-101831009D01*
X130238095Y-101831009D02*
X130142857Y-101878628D01*
X130142857Y-101878628D02*
X129761905Y-101878628D01*
X130666667Y-101354819D02*
X131285714Y-101354819D01*
X131285714Y-101354819D02*
X130952381Y-101735771D01*
X130952381Y-101735771D02*
X131095238Y-101735771D01*
X131095238Y-101735771D02*
X131190476Y-101783390D01*
X131190476Y-101783390D02*
X131238095Y-101831009D01*
X131238095Y-101831009D02*
X131285714Y-101926247D01*
X131285714Y-101926247D02*
X131285714Y-102164342D01*
X131285714Y-102164342D02*
X131238095Y-102259580D01*
X131238095Y-102259580D02*
X131190476Y-102307200D01*
X131190476Y-102307200D02*
X131095238Y-102354819D01*
X131095238Y-102354819D02*
X130809524Y-102354819D01*
X130809524Y-102354819D02*
X130714286Y-102307200D01*
X130714286Y-102307200D02*
X130666667Y-102259580D01*
X133904761Y-104354819D02*
X133333333Y-104354819D01*
X133619047Y-104354819D02*
X133619047Y-103354819D01*
X133619047Y-103354819D02*
X133523809Y-103497676D01*
X133523809Y-103497676D02*
X133428571Y-103592914D01*
X133428571Y-103592914D02*
X133333333Y-103640533D01*
X134523809Y-103354819D02*
X134619047Y-103354819D01*
X134619047Y-103354819D02*
X134714285Y-103402438D01*
X134714285Y-103402438D02*
X134761904Y-103450057D01*
X134761904Y-103450057D02*
X134809523Y-103545295D01*
X134809523Y-103545295D02*
X134857142Y-103735771D01*
X134857142Y-103735771D02*
X134857142Y-103973866D01*
X134857142Y-103973866D02*
X134809523Y-104164342D01*
X134809523Y-104164342D02*
X134761904Y-104259580D01*
X134761904Y-104259580D02*
X134714285Y-104307200D01*
X134714285Y-104307200D02*
X134619047Y-104354819D01*
X134619047Y-104354819D02*
X134523809Y-104354819D01*
X134523809Y-104354819D02*
X134428571Y-104307200D01*
X134428571Y-104307200D02*
X134380952Y-104259580D01*
X134380952Y-104259580D02*
X134333333Y-104164342D01*
X134333333Y-104164342D02*
X134285714Y-103973866D01*
X134285714Y-103973866D02*
X134285714Y-103735771D01*
X134285714Y-103735771D02*
X134333333Y-103545295D01*
X134333333Y-103545295D02*
X134380952Y-103450057D01*
X134380952Y-103450057D02*
X134428571Y-103402438D01*
X134428571Y-103402438D02*
X134523809Y-103354819D01*
X135285714Y-104354819D02*
X135285714Y-103354819D01*
X135380952Y-103973866D02*
X135666666Y-104354819D01*
X135666666Y-103688152D02*
X135285714Y-104069104D01*
X130333333Y-106854819D02*
X130000000Y-106378628D01*
X129761905Y-106854819D02*
X129761905Y-105854819D01*
X129761905Y-105854819D02*
X130142857Y-105854819D01*
X130142857Y-105854819D02*
X130238095Y-105902438D01*
X130238095Y-105902438D02*
X130285714Y-105950057D01*
X130285714Y-105950057D02*
X130333333Y-106045295D01*
X130333333Y-106045295D02*
X130333333Y-106188152D01*
X130333333Y-106188152D02*
X130285714Y-106283390D01*
X130285714Y-106283390D02*
X130238095Y-106331009D01*
X130238095Y-106331009D02*
X130142857Y-106378628D01*
X130142857Y-106378628D02*
X129761905Y-106378628D01*
X131190476Y-106188152D02*
X131190476Y-106854819D01*
X130952381Y-105807200D02*
X130714286Y-106521485D01*
X130714286Y-106521485D02*
X131333333Y-106521485D01*
X133904761Y-108674819D02*
X133333333Y-108674819D01*
X133619047Y-108674819D02*
X133619047Y-107674819D01*
X133619047Y-107674819D02*
X133523809Y-107817676D01*
X133523809Y-107817676D02*
X133428571Y-107912914D01*
X133428571Y-107912914D02*
X133333333Y-107960533D01*
X134523809Y-107674819D02*
X134619047Y-107674819D01*
X134619047Y-107674819D02*
X134714285Y-107722438D01*
X134714285Y-107722438D02*
X134761904Y-107770057D01*
X134761904Y-107770057D02*
X134809523Y-107865295D01*
X134809523Y-107865295D02*
X134857142Y-108055771D01*
X134857142Y-108055771D02*
X134857142Y-108293866D01*
X134857142Y-108293866D02*
X134809523Y-108484342D01*
X134809523Y-108484342D02*
X134761904Y-108579580D01*
X134761904Y-108579580D02*
X134714285Y-108627200D01*
X134714285Y-108627200D02*
X134619047Y-108674819D01*
X134619047Y-108674819D02*
X134523809Y-108674819D01*
X134523809Y-108674819D02*
X134428571Y-108627200D01*
X134428571Y-108627200D02*
X134380952Y-108579580D01*
X134380952Y-108579580D02*
X134333333Y-108484342D01*
X134333333Y-108484342D02*
X134285714Y-108293866D01*
X134285714Y-108293866D02*
X134285714Y-108055771D01*
X134285714Y-108055771D02*
X134333333Y-107865295D01*
X134333333Y-107865295D02*
X134380952Y-107770057D01*
X134380952Y-107770057D02*
X134428571Y-107722438D01*
X134428571Y-107722438D02*
X134523809Y-107674819D01*
X135285714Y-108674819D02*
X135285714Y-107674819D01*
X135380952Y-108293866D02*
X135666666Y-108674819D01*
X135666666Y-108008152D02*
X135285714Y-108389104D01*
X148639583Y-90440830D02*
X148591964Y-90488450D01*
X148591964Y-90488450D02*
X148449107Y-90536069D01*
X148449107Y-90536069D02*
X148353869Y-90536069D01*
X148353869Y-90536069D02*
X148211012Y-90488450D01*
X148211012Y-90488450D02*
X148115774Y-90393211D01*
X148115774Y-90393211D02*
X148068155Y-90297973D01*
X148068155Y-90297973D02*
X148020536Y-90107497D01*
X148020536Y-90107497D02*
X148020536Y-89964640D01*
X148020536Y-89964640D02*
X148068155Y-89774164D01*
X148068155Y-89774164D02*
X148115774Y-89678926D01*
X148115774Y-89678926D02*
X148211012Y-89583688D01*
X148211012Y-89583688D02*
X148353869Y-89536069D01*
X148353869Y-89536069D02*
X148449107Y-89536069D01*
X148449107Y-89536069D02*
X148591964Y-89583688D01*
X148591964Y-89583688D02*
X148639583Y-89631307D01*
X149020536Y-89631307D02*
X149068155Y-89583688D01*
X149068155Y-89583688D02*
X149163393Y-89536069D01*
X149163393Y-89536069D02*
X149401488Y-89536069D01*
X149401488Y-89536069D02*
X149496726Y-89583688D01*
X149496726Y-89583688D02*
X149544345Y-89631307D01*
X149544345Y-89631307D02*
X149591964Y-89726545D01*
X149591964Y-89726545D02*
X149591964Y-89821783D01*
X149591964Y-89821783D02*
X149544345Y-89964640D01*
X149544345Y-89964640D02*
X148972917Y-90536069D01*
X148972917Y-90536069D02*
X149591964Y-90536069D01*
X144200893Y-91311069D02*
X144296131Y-91311069D01*
X144296131Y-91311069D02*
X144391369Y-91358688D01*
X144391369Y-91358688D02*
X144438988Y-91406307D01*
X144438988Y-91406307D02*
X144486607Y-91501545D01*
X144486607Y-91501545D02*
X144534226Y-91692021D01*
X144534226Y-91692021D02*
X144534226Y-91930116D01*
X144534226Y-91930116D02*
X144486607Y-92120592D01*
X144486607Y-92120592D02*
X144438988Y-92215830D01*
X144438988Y-92215830D02*
X144391369Y-92263450D01*
X144391369Y-92263450D02*
X144296131Y-92311069D01*
X144296131Y-92311069D02*
X144200893Y-92311069D01*
X144200893Y-92311069D02*
X144105655Y-92263450D01*
X144105655Y-92263450D02*
X144058036Y-92215830D01*
X144058036Y-92215830D02*
X144010417Y-92120592D01*
X144010417Y-92120592D02*
X143962798Y-91930116D01*
X143962798Y-91930116D02*
X143962798Y-91692021D01*
X143962798Y-91692021D02*
X144010417Y-91501545D01*
X144010417Y-91501545D02*
X144058036Y-91406307D01*
X144058036Y-91406307D02*
X144105655Y-91358688D01*
X144105655Y-91358688D02*
X144200893Y-91311069D01*
X144962798Y-92215830D02*
X145010417Y-92263450D01*
X145010417Y-92263450D02*
X144962798Y-92311069D01*
X144962798Y-92311069D02*
X144915179Y-92263450D01*
X144915179Y-92263450D02*
X144962798Y-92215830D01*
X144962798Y-92215830D02*
X144962798Y-92311069D01*
X145962797Y-92311069D02*
X145391369Y-92311069D01*
X145677083Y-92311069D02*
X145677083Y-91311069D01*
X145677083Y-91311069D02*
X145581845Y-91453926D01*
X145581845Y-91453926D02*
X145486607Y-91549164D01*
X145486607Y-91549164D02*
X145391369Y-91596783D01*
X146819940Y-91644402D02*
X146819940Y-92311069D01*
X146391369Y-91644402D02*
X146391369Y-92168211D01*
X146391369Y-92168211D02*
X146438988Y-92263450D01*
X146438988Y-92263450D02*
X146534226Y-92311069D01*
X146534226Y-92311069D02*
X146677083Y-92311069D01*
X146677083Y-92311069D02*
X146772321Y-92263450D01*
X146772321Y-92263450D02*
X146819940Y-92215830D01*
X147629464Y-91787259D02*
X147296131Y-91787259D01*
X147296131Y-92311069D02*
X147296131Y-91311069D01*
X147296131Y-91311069D02*
X147772321Y-91311069D01*
X133722916Y-80637259D02*
X133389583Y-80637259D01*
X133389583Y-81161069D02*
X133389583Y-80161069D01*
X133389583Y-80161069D02*
X133865773Y-80161069D01*
X134199107Y-80256307D02*
X134246726Y-80208688D01*
X134246726Y-80208688D02*
X134341964Y-80161069D01*
X134341964Y-80161069D02*
X134580059Y-80161069D01*
X134580059Y-80161069D02*
X134675297Y-80208688D01*
X134675297Y-80208688D02*
X134722916Y-80256307D01*
X134722916Y-80256307D02*
X134770535Y-80351545D01*
X134770535Y-80351545D02*
X134770535Y-80446783D01*
X134770535Y-80446783D02*
X134722916Y-80589640D01*
X134722916Y-80589640D02*
X134151488Y-81161069D01*
X134151488Y-81161069D02*
X134770535Y-81161069D01*
X133913392Y-85554819D02*
X133341964Y-85554819D01*
X133627678Y-85554819D02*
X133627678Y-84554819D01*
X133627678Y-84554819D02*
X133532440Y-84697676D01*
X133532440Y-84697676D02*
X133437202Y-84792914D01*
X133437202Y-84792914D02*
X133341964Y-84840533D01*
X134294345Y-85269104D02*
X134770535Y-85269104D01*
X134199107Y-85554819D02*
X134532440Y-84554819D01*
X134532440Y-84554819D02*
X134865773Y-85554819D01*
X172833333Y-80359580D02*
X172785714Y-80407200D01*
X172785714Y-80407200D02*
X172642857Y-80454819D01*
X172642857Y-80454819D02*
X172547619Y-80454819D01*
X172547619Y-80454819D02*
X172404762Y-80407200D01*
X172404762Y-80407200D02*
X172309524Y-80311961D01*
X172309524Y-80311961D02*
X172261905Y-80216723D01*
X172261905Y-80216723D02*
X172214286Y-80026247D01*
X172214286Y-80026247D02*
X172214286Y-79883390D01*
X172214286Y-79883390D02*
X172261905Y-79692914D01*
X172261905Y-79692914D02*
X172309524Y-79597676D01*
X172309524Y-79597676D02*
X172404762Y-79502438D01*
X172404762Y-79502438D02*
X172547619Y-79454819D01*
X172547619Y-79454819D02*
X172642857Y-79454819D01*
X172642857Y-79454819D02*
X172785714Y-79502438D01*
X172785714Y-79502438D02*
X172833333Y-79550057D01*
X173166667Y-79454819D02*
X173785714Y-79454819D01*
X173785714Y-79454819D02*
X173452381Y-79835771D01*
X173452381Y-79835771D02*
X173595238Y-79835771D01*
X173595238Y-79835771D02*
X173690476Y-79883390D01*
X173690476Y-79883390D02*
X173738095Y-79931009D01*
X173738095Y-79931009D02*
X173785714Y-80026247D01*
X173785714Y-80026247D02*
X173785714Y-80264342D01*
X173785714Y-80264342D02*
X173738095Y-80359580D01*
X173738095Y-80359580D02*
X173690476Y-80407200D01*
X173690476Y-80407200D02*
X173595238Y-80454819D01*
X173595238Y-80454819D02*
X173309524Y-80454819D01*
X173309524Y-80454819D02*
X173214286Y-80407200D01*
X173214286Y-80407200D02*
X173166667Y-80359580D01*
X167357143Y-81454819D02*
X167452381Y-81454819D01*
X167452381Y-81454819D02*
X167547619Y-81502438D01*
X167547619Y-81502438D02*
X167595238Y-81550057D01*
X167595238Y-81550057D02*
X167642857Y-81645295D01*
X167642857Y-81645295D02*
X167690476Y-81835771D01*
X167690476Y-81835771D02*
X167690476Y-82073866D01*
X167690476Y-82073866D02*
X167642857Y-82264342D01*
X167642857Y-82264342D02*
X167595238Y-82359580D01*
X167595238Y-82359580D02*
X167547619Y-82407200D01*
X167547619Y-82407200D02*
X167452381Y-82454819D01*
X167452381Y-82454819D02*
X167357143Y-82454819D01*
X167357143Y-82454819D02*
X167261905Y-82407200D01*
X167261905Y-82407200D02*
X167214286Y-82359580D01*
X167214286Y-82359580D02*
X167166667Y-82264342D01*
X167166667Y-82264342D02*
X167119048Y-82073866D01*
X167119048Y-82073866D02*
X167119048Y-81835771D01*
X167119048Y-81835771D02*
X167166667Y-81645295D01*
X167166667Y-81645295D02*
X167214286Y-81550057D01*
X167214286Y-81550057D02*
X167261905Y-81502438D01*
X167261905Y-81502438D02*
X167357143Y-81454819D01*
X168119048Y-82359580D02*
X168166667Y-82407200D01*
X168166667Y-82407200D02*
X168119048Y-82454819D01*
X168119048Y-82454819D02*
X168071429Y-82407200D01*
X168071429Y-82407200D02*
X168119048Y-82359580D01*
X168119048Y-82359580D02*
X168119048Y-82454819D01*
X169119047Y-82454819D02*
X168547619Y-82454819D01*
X168833333Y-82454819D02*
X168833333Y-81454819D01*
X168833333Y-81454819D02*
X168738095Y-81597676D01*
X168738095Y-81597676D02*
X168642857Y-81692914D01*
X168642857Y-81692914D02*
X168547619Y-81740533D01*
X169976190Y-81788152D02*
X169976190Y-82454819D01*
X169547619Y-81788152D02*
X169547619Y-82311961D01*
X169547619Y-82311961D02*
X169595238Y-82407200D01*
X169595238Y-82407200D02*
X169690476Y-82454819D01*
X169690476Y-82454819D02*
X169833333Y-82454819D01*
X169833333Y-82454819D02*
X169928571Y-82407200D01*
X169928571Y-82407200D02*
X169976190Y-82359580D01*
X170785714Y-81931009D02*
X170452381Y-81931009D01*
X170452381Y-82454819D02*
X170452381Y-81454819D01*
X170452381Y-81454819D02*
X170928571Y-81454819D01*
X163333333Y-80359580D02*
X163285714Y-80407200D01*
X163285714Y-80407200D02*
X163142857Y-80454819D01*
X163142857Y-80454819D02*
X163047619Y-80454819D01*
X163047619Y-80454819D02*
X162904762Y-80407200D01*
X162904762Y-80407200D02*
X162809524Y-80311961D01*
X162809524Y-80311961D02*
X162761905Y-80216723D01*
X162761905Y-80216723D02*
X162714286Y-80026247D01*
X162714286Y-80026247D02*
X162714286Y-79883390D01*
X162714286Y-79883390D02*
X162761905Y-79692914D01*
X162761905Y-79692914D02*
X162809524Y-79597676D01*
X162809524Y-79597676D02*
X162904762Y-79502438D01*
X162904762Y-79502438D02*
X163047619Y-79454819D01*
X163047619Y-79454819D02*
X163142857Y-79454819D01*
X163142857Y-79454819D02*
X163285714Y-79502438D01*
X163285714Y-79502438D02*
X163333333Y-79550057D01*
X164190476Y-79788152D02*
X164190476Y-80454819D01*
X163952381Y-79407200D02*
X163714286Y-80121485D01*
X163714286Y-80121485D02*
X164333333Y-80121485D01*
X157857143Y-81454819D02*
X157952381Y-81454819D01*
X157952381Y-81454819D02*
X158047619Y-81502438D01*
X158047619Y-81502438D02*
X158095238Y-81550057D01*
X158095238Y-81550057D02*
X158142857Y-81645295D01*
X158142857Y-81645295D02*
X158190476Y-81835771D01*
X158190476Y-81835771D02*
X158190476Y-82073866D01*
X158190476Y-82073866D02*
X158142857Y-82264342D01*
X158142857Y-82264342D02*
X158095238Y-82359580D01*
X158095238Y-82359580D02*
X158047619Y-82407200D01*
X158047619Y-82407200D02*
X157952381Y-82454819D01*
X157952381Y-82454819D02*
X157857143Y-82454819D01*
X157857143Y-82454819D02*
X157761905Y-82407200D01*
X157761905Y-82407200D02*
X157714286Y-82359580D01*
X157714286Y-82359580D02*
X157666667Y-82264342D01*
X157666667Y-82264342D02*
X157619048Y-82073866D01*
X157619048Y-82073866D02*
X157619048Y-81835771D01*
X157619048Y-81835771D02*
X157666667Y-81645295D01*
X157666667Y-81645295D02*
X157714286Y-81550057D01*
X157714286Y-81550057D02*
X157761905Y-81502438D01*
X157761905Y-81502438D02*
X157857143Y-81454819D01*
X158619048Y-82359580D02*
X158666667Y-82407200D01*
X158666667Y-82407200D02*
X158619048Y-82454819D01*
X158619048Y-82454819D02*
X158571429Y-82407200D01*
X158571429Y-82407200D02*
X158619048Y-82359580D01*
X158619048Y-82359580D02*
X158619048Y-82454819D01*
X159619047Y-82454819D02*
X159047619Y-82454819D01*
X159333333Y-82454819D02*
X159333333Y-81454819D01*
X159333333Y-81454819D02*
X159238095Y-81597676D01*
X159238095Y-81597676D02*
X159142857Y-81692914D01*
X159142857Y-81692914D02*
X159047619Y-81740533D01*
X160476190Y-81788152D02*
X160476190Y-82454819D01*
X160047619Y-81788152D02*
X160047619Y-82311961D01*
X160047619Y-82311961D02*
X160095238Y-82407200D01*
X160095238Y-82407200D02*
X160190476Y-82454819D01*
X160190476Y-82454819D02*
X160333333Y-82454819D01*
X160333333Y-82454819D02*
X160428571Y-82407200D01*
X160428571Y-82407200D02*
X160476190Y-82359580D01*
X161285714Y-81931009D02*
X160952381Y-81931009D01*
X160952381Y-82454819D02*
X160952381Y-81454819D01*
X160952381Y-81454819D02*
X161428571Y-81454819D01*
X149139583Y-81940830D02*
X149091964Y-81988450D01*
X149091964Y-81988450D02*
X148949107Y-82036069D01*
X148949107Y-82036069D02*
X148853869Y-82036069D01*
X148853869Y-82036069D02*
X148711012Y-81988450D01*
X148711012Y-81988450D02*
X148615774Y-81893211D01*
X148615774Y-81893211D02*
X148568155Y-81797973D01*
X148568155Y-81797973D02*
X148520536Y-81607497D01*
X148520536Y-81607497D02*
X148520536Y-81464640D01*
X148520536Y-81464640D02*
X148568155Y-81274164D01*
X148568155Y-81274164D02*
X148615774Y-81178926D01*
X148615774Y-81178926D02*
X148711012Y-81083688D01*
X148711012Y-81083688D02*
X148853869Y-81036069D01*
X148853869Y-81036069D02*
X148949107Y-81036069D01*
X148949107Y-81036069D02*
X149091964Y-81083688D01*
X149091964Y-81083688D02*
X149139583Y-81131307D01*
X149472917Y-81036069D02*
X150139583Y-81036069D01*
X150139583Y-81036069D02*
X149711012Y-82036069D01*
X144263393Y-77131307D02*
X144311012Y-77083688D01*
X144311012Y-77083688D02*
X144406250Y-77036069D01*
X144406250Y-77036069D02*
X144644345Y-77036069D01*
X144644345Y-77036069D02*
X144739583Y-77083688D01*
X144739583Y-77083688D02*
X144787202Y-77131307D01*
X144787202Y-77131307D02*
X144834821Y-77226545D01*
X144834821Y-77226545D02*
X144834821Y-77321783D01*
X144834821Y-77321783D02*
X144787202Y-77464640D01*
X144787202Y-77464640D02*
X144215774Y-78036069D01*
X144215774Y-78036069D02*
X144834821Y-78036069D01*
X145215774Y-77131307D02*
X145263393Y-77083688D01*
X145263393Y-77083688D02*
X145358631Y-77036069D01*
X145358631Y-77036069D02*
X145596726Y-77036069D01*
X145596726Y-77036069D02*
X145691964Y-77083688D01*
X145691964Y-77083688D02*
X145739583Y-77131307D01*
X145739583Y-77131307D02*
X145787202Y-77226545D01*
X145787202Y-77226545D02*
X145787202Y-77321783D01*
X145787202Y-77321783D02*
X145739583Y-77464640D01*
X145739583Y-77464640D02*
X145168155Y-78036069D01*
X145168155Y-78036069D02*
X145787202Y-78036069D01*
X146644345Y-77369402D02*
X146644345Y-78036069D01*
X146215774Y-77369402D02*
X146215774Y-77893211D01*
X146215774Y-77893211D02*
X146263393Y-77988450D01*
X146263393Y-77988450D02*
X146358631Y-78036069D01*
X146358631Y-78036069D02*
X146501488Y-78036069D01*
X146501488Y-78036069D02*
X146596726Y-77988450D01*
X146596726Y-77988450D02*
X146644345Y-77940830D01*
X147453869Y-77512259D02*
X147120536Y-77512259D01*
X147120536Y-78036069D02*
X147120536Y-77036069D01*
X147120536Y-77036069D02*
X147596726Y-77036069D01*
X165833333Y-106854819D02*
X165500000Y-106378628D01*
X165261905Y-106854819D02*
X165261905Y-105854819D01*
X165261905Y-105854819D02*
X165642857Y-105854819D01*
X165642857Y-105854819D02*
X165738095Y-105902438D01*
X165738095Y-105902438D02*
X165785714Y-105950057D01*
X165785714Y-105950057D02*
X165833333Y-106045295D01*
X165833333Y-106045295D02*
X165833333Y-106188152D01*
X165833333Y-106188152D02*
X165785714Y-106283390D01*
X165785714Y-106283390D02*
X165738095Y-106331009D01*
X165738095Y-106331009D02*
X165642857Y-106378628D01*
X165642857Y-106378628D02*
X165261905Y-106378628D01*
X166690476Y-105854819D02*
X166500000Y-105854819D01*
X166500000Y-105854819D02*
X166404762Y-105902438D01*
X166404762Y-105902438D02*
X166357143Y-105950057D01*
X166357143Y-105950057D02*
X166261905Y-106092914D01*
X166261905Y-106092914D02*
X166214286Y-106283390D01*
X166214286Y-106283390D02*
X166214286Y-106664342D01*
X166214286Y-106664342D02*
X166261905Y-106759580D01*
X166261905Y-106759580D02*
X166309524Y-106807200D01*
X166309524Y-106807200D02*
X166404762Y-106854819D01*
X166404762Y-106854819D02*
X166595238Y-106854819D01*
X166595238Y-106854819D02*
X166690476Y-106807200D01*
X166690476Y-106807200D02*
X166738095Y-106759580D01*
X166738095Y-106759580D02*
X166785714Y-106664342D01*
X166785714Y-106664342D02*
X166785714Y-106426247D01*
X166785714Y-106426247D02*
X166738095Y-106331009D01*
X166738095Y-106331009D02*
X166690476Y-106283390D01*
X166690476Y-106283390D02*
X166595238Y-106235771D01*
X166595238Y-106235771D02*
X166404762Y-106235771D01*
X166404762Y-106235771D02*
X166309524Y-106283390D01*
X166309524Y-106283390D02*
X166261905Y-106331009D01*
X166261905Y-106331009D02*
X166214286Y-106426247D01*
X161654761Y-112854819D02*
X161083333Y-112854819D01*
X161369047Y-112854819D02*
X161369047Y-111854819D01*
X161369047Y-111854819D02*
X161273809Y-111997676D01*
X161273809Y-111997676D02*
X161178571Y-112092914D01*
X161178571Y-112092914D02*
X161083333Y-112140533D01*
X162273809Y-111854819D02*
X162369047Y-111854819D01*
X162369047Y-111854819D02*
X162464285Y-111902438D01*
X162464285Y-111902438D02*
X162511904Y-111950057D01*
X162511904Y-111950057D02*
X162559523Y-112045295D01*
X162559523Y-112045295D02*
X162607142Y-112235771D01*
X162607142Y-112235771D02*
X162607142Y-112473866D01*
X162607142Y-112473866D02*
X162559523Y-112664342D01*
X162559523Y-112664342D02*
X162511904Y-112759580D01*
X162511904Y-112759580D02*
X162464285Y-112807200D01*
X162464285Y-112807200D02*
X162369047Y-112854819D01*
X162369047Y-112854819D02*
X162273809Y-112854819D01*
X162273809Y-112854819D02*
X162178571Y-112807200D01*
X162178571Y-112807200D02*
X162130952Y-112759580D01*
X162130952Y-112759580D02*
X162083333Y-112664342D01*
X162083333Y-112664342D02*
X162035714Y-112473866D01*
X162035714Y-112473866D02*
X162035714Y-112235771D01*
X162035714Y-112235771D02*
X162083333Y-112045295D01*
X162083333Y-112045295D02*
X162130952Y-111950057D01*
X162130952Y-111950057D02*
X162178571Y-111902438D01*
X162178571Y-111902438D02*
X162273809Y-111854819D01*
X163035714Y-112854819D02*
X163035714Y-111854819D01*
X163130952Y-112473866D02*
X163416666Y-112854819D01*
X163416666Y-112188152D02*
X163035714Y-112569104D01*
X140489583Y-80790830D02*
X140441964Y-80838450D01*
X140441964Y-80838450D02*
X140299107Y-80886069D01*
X140299107Y-80886069D02*
X140203869Y-80886069D01*
X140203869Y-80886069D02*
X140061012Y-80838450D01*
X140061012Y-80838450D02*
X139965774Y-80743211D01*
X139965774Y-80743211D02*
X139918155Y-80647973D01*
X139918155Y-80647973D02*
X139870536Y-80457497D01*
X139870536Y-80457497D02*
X139870536Y-80314640D01*
X139870536Y-80314640D02*
X139918155Y-80124164D01*
X139918155Y-80124164D02*
X139965774Y-80028926D01*
X139965774Y-80028926D02*
X140061012Y-79933688D01*
X140061012Y-79933688D02*
X140203869Y-79886069D01*
X140203869Y-79886069D02*
X140299107Y-79886069D01*
X140299107Y-79886069D02*
X140441964Y-79933688D01*
X140441964Y-79933688D02*
X140489583Y-79981307D01*
X141441964Y-80886069D02*
X140870536Y-80886069D01*
X141156250Y-80886069D02*
X141156250Y-79886069D01*
X141156250Y-79886069D02*
X141061012Y-80028926D01*
X141061012Y-80028926D02*
X140965774Y-80124164D01*
X140965774Y-80124164D02*
X140870536Y-80171783D01*
X137911069Y-86177678D02*
X137911069Y-86749106D01*
X137911069Y-86463392D02*
X136911069Y-86463392D01*
X136911069Y-86463392D02*
X137053926Y-86558630D01*
X137053926Y-86558630D02*
X137149164Y-86653868D01*
X137149164Y-86653868D02*
X137196783Y-86749106D01*
X136911069Y-85558630D02*
X136911069Y-85463392D01*
X136911069Y-85463392D02*
X136958688Y-85368154D01*
X136958688Y-85368154D02*
X137006307Y-85320535D01*
X137006307Y-85320535D02*
X137101545Y-85272916D01*
X137101545Y-85272916D02*
X137292021Y-85225297D01*
X137292021Y-85225297D02*
X137530116Y-85225297D01*
X137530116Y-85225297D02*
X137720592Y-85272916D01*
X137720592Y-85272916D02*
X137815830Y-85320535D01*
X137815830Y-85320535D02*
X137863450Y-85368154D01*
X137863450Y-85368154D02*
X137911069Y-85463392D01*
X137911069Y-85463392D02*
X137911069Y-85558630D01*
X137911069Y-85558630D02*
X137863450Y-85653868D01*
X137863450Y-85653868D02*
X137815830Y-85701487D01*
X137815830Y-85701487D02*
X137720592Y-85749106D01*
X137720592Y-85749106D02*
X137530116Y-85796725D01*
X137530116Y-85796725D02*
X137292021Y-85796725D01*
X137292021Y-85796725D02*
X137101545Y-85749106D01*
X137101545Y-85749106D02*
X137006307Y-85701487D01*
X137006307Y-85701487D02*
X136958688Y-85653868D01*
X136958688Y-85653868D02*
X136911069Y-85558630D01*
X137244402Y-84368154D02*
X137911069Y-84368154D01*
X137244402Y-84796725D02*
X137768211Y-84796725D01*
X137768211Y-84796725D02*
X137863450Y-84749106D01*
X137863450Y-84749106D02*
X137911069Y-84653868D01*
X137911069Y-84653868D02*
X137911069Y-84511011D01*
X137911069Y-84511011D02*
X137863450Y-84415773D01*
X137863450Y-84415773D02*
X137815830Y-84368154D01*
X137387259Y-83558630D02*
X137387259Y-83891963D01*
X137911069Y-83891963D02*
X136911069Y-83891963D01*
X136911069Y-83891963D02*
X136911069Y-83415773D01*
X153139583Y-82761069D02*
X152663393Y-82761069D01*
X152663393Y-82761069D02*
X152663393Y-81761069D01*
X153996726Y-82761069D02*
X153425298Y-82761069D01*
X153711012Y-82761069D02*
X153711012Y-81761069D01*
X153711012Y-81761069D02*
X153615774Y-81903926D01*
X153615774Y-81903926D02*
X153520536Y-81999164D01*
X153520536Y-81999164D02*
X153425298Y-82046783D01*
X152520535Y-90594402D02*
X152520535Y-91261069D01*
X152282440Y-90213450D02*
X152044345Y-90927735D01*
X152044345Y-90927735D02*
X152663392Y-90927735D01*
X153615773Y-91261069D02*
X153282440Y-90784878D01*
X153044345Y-91261069D02*
X153044345Y-90261069D01*
X153044345Y-90261069D02*
X153425297Y-90261069D01*
X153425297Y-90261069D02*
X153520535Y-90308688D01*
X153520535Y-90308688D02*
X153568154Y-90356307D01*
X153568154Y-90356307D02*
X153615773Y-90451545D01*
X153615773Y-90451545D02*
X153615773Y-90594402D01*
X153615773Y-90594402D02*
X153568154Y-90689640D01*
X153568154Y-90689640D02*
X153520535Y-90737259D01*
X153520535Y-90737259D02*
X153425297Y-90784878D01*
X153425297Y-90784878D02*
X153044345Y-90784878D01*
X153949107Y-90261069D02*
X154615773Y-90261069D01*
X154615773Y-90261069D02*
X154187202Y-91261069D01*
X130333333Y-97854819D02*
X130000000Y-97378628D01*
X129761905Y-97854819D02*
X129761905Y-96854819D01*
X129761905Y-96854819D02*
X130142857Y-96854819D01*
X130142857Y-96854819D02*
X130238095Y-96902438D01*
X130238095Y-96902438D02*
X130285714Y-96950057D01*
X130285714Y-96950057D02*
X130333333Y-97045295D01*
X130333333Y-97045295D02*
X130333333Y-97188152D01*
X130333333Y-97188152D02*
X130285714Y-97283390D01*
X130285714Y-97283390D02*
X130238095Y-97331009D01*
X130238095Y-97331009D02*
X130142857Y-97378628D01*
X130142857Y-97378628D02*
X129761905Y-97378628D01*
X131238095Y-96854819D02*
X130761905Y-96854819D01*
X130761905Y-96854819D02*
X130714286Y-97331009D01*
X130714286Y-97331009D02*
X130761905Y-97283390D01*
X130761905Y-97283390D02*
X130857143Y-97235771D01*
X130857143Y-97235771D02*
X131095238Y-97235771D01*
X131095238Y-97235771D02*
X131190476Y-97283390D01*
X131190476Y-97283390D02*
X131238095Y-97331009D01*
X131238095Y-97331009D02*
X131285714Y-97426247D01*
X131285714Y-97426247D02*
X131285714Y-97664342D01*
X131285714Y-97664342D02*
X131238095Y-97759580D01*
X131238095Y-97759580D02*
X131190476Y-97807200D01*
X131190476Y-97807200D02*
X131095238Y-97854819D01*
X131095238Y-97854819D02*
X130857143Y-97854819D01*
X130857143Y-97854819D02*
X130761905Y-97807200D01*
X130761905Y-97807200D02*
X130714286Y-97759580D01*
X133904761Y-99854819D02*
X133333333Y-99854819D01*
X133619047Y-99854819D02*
X133619047Y-98854819D01*
X133619047Y-98854819D02*
X133523809Y-98997676D01*
X133523809Y-98997676D02*
X133428571Y-99092914D01*
X133428571Y-99092914D02*
X133333333Y-99140533D01*
X134523809Y-98854819D02*
X134619047Y-98854819D01*
X134619047Y-98854819D02*
X134714285Y-98902438D01*
X134714285Y-98902438D02*
X134761904Y-98950057D01*
X134761904Y-98950057D02*
X134809523Y-99045295D01*
X134809523Y-99045295D02*
X134857142Y-99235771D01*
X134857142Y-99235771D02*
X134857142Y-99473866D01*
X134857142Y-99473866D02*
X134809523Y-99664342D01*
X134809523Y-99664342D02*
X134761904Y-99759580D01*
X134761904Y-99759580D02*
X134714285Y-99807200D01*
X134714285Y-99807200D02*
X134619047Y-99854819D01*
X134619047Y-99854819D02*
X134523809Y-99854819D01*
X134523809Y-99854819D02*
X134428571Y-99807200D01*
X134428571Y-99807200D02*
X134380952Y-99759580D01*
X134380952Y-99759580D02*
X134333333Y-99664342D01*
X134333333Y-99664342D02*
X134285714Y-99473866D01*
X134285714Y-99473866D02*
X134285714Y-99235771D01*
X134285714Y-99235771D02*
X134333333Y-99045295D01*
X134333333Y-99045295D02*
X134380952Y-98950057D01*
X134380952Y-98950057D02*
X134428571Y-98902438D01*
X134428571Y-98902438D02*
X134523809Y-98854819D01*
X135285714Y-99854819D02*
X135285714Y-98854819D01*
X135380952Y-99473866D02*
X135666666Y-99854819D01*
X135666666Y-99188152D02*
X135285714Y-99569104D01*
X149139583Y-79665830D02*
X149091964Y-79713450D01*
X149091964Y-79713450D02*
X148949107Y-79761069D01*
X148949107Y-79761069D02*
X148853869Y-79761069D01*
X148853869Y-79761069D02*
X148711012Y-79713450D01*
X148711012Y-79713450D02*
X148615774Y-79618211D01*
X148615774Y-79618211D02*
X148568155Y-79522973D01*
X148568155Y-79522973D02*
X148520536Y-79332497D01*
X148520536Y-79332497D02*
X148520536Y-79189640D01*
X148520536Y-79189640D02*
X148568155Y-78999164D01*
X148568155Y-78999164D02*
X148615774Y-78903926D01*
X148615774Y-78903926D02*
X148711012Y-78808688D01*
X148711012Y-78808688D02*
X148853869Y-78761069D01*
X148853869Y-78761069D02*
X148949107Y-78761069D01*
X148949107Y-78761069D02*
X149091964Y-78808688D01*
X149091964Y-78808688D02*
X149139583Y-78856307D01*
X149711012Y-79189640D02*
X149615774Y-79142021D01*
X149615774Y-79142021D02*
X149568155Y-79094402D01*
X149568155Y-79094402D02*
X149520536Y-78999164D01*
X149520536Y-78999164D02*
X149520536Y-78951545D01*
X149520536Y-78951545D02*
X149568155Y-78856307D01*
X149568155Y-78856307D02*
X149615774Y-78808688D01*
X149615774Y-78808688D02*
X149711012Y-78761069D01*
X149711012Y-78761069D02*
X149901488Y-78761069D01*
X149901488Y-78761069D02*
X149996726Y-78808688D01*
X149996726Y-78808688D02*
X150044345Y-78856307D01*
X150044345Y-78856307D02*
X150091964Y-78951545D01*
X150091964Y-78951545D02*
X150091964Y-78999164D01*
X150091964Y-78999164D02*
X150044345Y-79094402D01*
X150044345Y-79094402D02*
X149996726Y-79142021D01*
X149996726Y-79142021D02*
X149901488Y-79189640D01*
X149901488Y-79189640D02*
X149711012Y-79189640D01*
X149711012Y-79189640D02*
X149615774Y-79237259D01*
X149615774Y-79237259D02*
X149568155Y-79284878D01*
X149568155Y-79284878D02*
X149520536Y-79380116D01*
X149520536Y-79380116D02*
X149520536Y-79570592D01*
X149520536Y-79570592D02*
X149568155Y-79665830D01*
X149568155Y-79665830D02*
X149615774Y-79713450D01*
X149615774Y-79713450D02*
X149711012Y-79761069D01*
X149711012Y-79761069D02*
X149901488Y-79761069D01*
X149901488Y-79761069D02*
X149996726Y-79713450D01*
X149996726Y-79713450D02*
X150044345Y-79665830D01*
X150044345Y-79665830D02*
X150091964Y-79570592D01*
X150091964Y-79570592D02*
X150091964Y-79380116D01*
X150091964Y-79380116D02*
X150044345Y-79284878D01*
X150044345Y-79284878D02*
X149996726Y-79237259D01*
X149996726Y-79237259D02*
X149901488Y-79189640D01*
X144263393Y-75881307D02*
X144311012Y-75833688D01*
X144311012Y-75833688D02*
X144406250Y-75786069D01*
X144406250Y-75786069D02*
X144644345Y-75786069D01*
X144644345Y-75786069D02*
X144739583Y-75833688D01*
X144739583Y-75833688D02*
X144787202Y-75881307D01*
X144787202Y-75881307D02*
X144834821Y-75976545D01*
X144834821Y-75976545D02*
X144834821Y-76071783D01*
X144834821Y-76071783D02*
X144787202Y-76214640D01*
X144787202Y-76214640D02*
X144215774Y-76786069D01*
X144215774Y-76786069D02*
X144834821Y-76786069D01*
X145215774Y-75881307D02*
X145263393Y-75833688D01*
X145263393Y-75833688D02*
X145358631Y-75786069D01*
X145358631Y-75786069D02*
X145596726Y-75786069D01*
X145596726Y-75786069D02*
X145691964Y-75833688D01*
X145691964Y-75833688D02*
X145739583Y-75881307D01*
X145739583Y-75881307D02*
X145787202Y-75976545D01*
X145787202Y-75976545D02*
X145787202Y-76071783D01*
X145787202Y-76071783D02*
X145739583Y-76214640D01*
X145739583Y-76214640D02*
X145168155Y-76786069D01*
X145168155Y-76786069D02*
X145787202Y-76786069D01*
X146644345Y-76119402D02*
X146644345Y-76786069D01*
X146215774Y-76119402D02*
X146215774Y-76643211D01*
X146215774Y-76643211D02*
X146263393Y-76738450D01*
X146263393Y-76738450D02*
X146358631Y-76786069D01*
X146358631Y-76786069D02*
X146501488Y-76786069D01*
X146501488Y-76786069D02*
X146596726Y-76738450D01*
X146596726Y-76738450D02*
X146644345Y-76690830D01*
X147453869Y-76262259D02*
X147120536Y-76262259D01*
X147120536Y-76786069D02*
X147120536Y-75786069D01*
X147120536Y-75786069D02*
X147596726Y-75786069D01*
X145044345Y-87536069D02*
X145044345Y-88345592D01*
X145044345Y-88345592D02*
X145091964Y-88440830D01*
X145091964Y-88440830D02*
X145139583Y-88488450D01*
X145139583Y-88488450D02*
X145234821Y-88536069D01*
X145234821Y-88536069D02*
X145425297Y-88536069D01*
X145425297Y-88536069D02*
X145520535Y-88488450D01*
X145520535Y-88488450D02*
X145568154Y-88440830D01*
X145568154Y-88440830D02*
X145615773Y-88345592D01*
X145615773Y-88345592D02*
X145615773Y-87536069D01*
X146520535Y-87869402D02*
X146520535Y-88536069D01*
X146282440Y-87488450D02*
X146044345Y-88202735D01*
X146044345Y-88202735D02*
X146663392Y-88202735D01*
X136880952Y-90275354D02*
X137357142Y-90275354D01*
X136785714Y-90561069D02*
X137119047Y-89561069D01*
X137119047Y-89561069D02*
X137452380Y-90561069D01*
X137785714Y-90561069D02*
X137785714Y-89561069D01*
X137785714Y-89561069D02*
X138166666Y-89561069D01*
X138166666Y-89561069D02*
X138261904Y-89608688D01*
X138261904Y-89608688D02*
X138309523Y-89656307D01*
X138309523Y-89656307D02*
X138357142Y-89751545D01*
X138357142Y-89751545D02*
X138357142Y-89894402D01*
X138357142Y-89894402D02*
X138309523Y-89989640D01*
X138309523Y-89989640D02*
X138261904Y-90037259D01*
X138261904Y-90037259D02*
X138166666Y-90084878D01*
X138166666Y-90084878D02*
X137785714Y-90084878D01*
X139214285Y-89561069D02*
X139023809Y-89561069D01*
X139023809Y-89561069D02*
X138928571Y-89608688D01*
X138928571Y-89608688D02*
X138880952Y-89656307D01*
X138880952Y-89656307D02*
X138785714Y-89799164D01*
X138785714Y-89799164D02*
X138738095Y-89989640D01*
X138738095Y-89989640D02*
X138738095Y-90370592D01*
X138738095Y-90370592D02*
X138785714Y-90465830D01*
X138785714Y-90465830D02*
X138833333Y-90513450D01*
X138833333Y-90513450D02*
X138928571Y-90561069D01*
X138928571Y-90561069D02*
X139119047Y-90561069D01*
X139119047Y-90561069D02*
X139214285Y-90513450D01*
X139214285Y-90513450D02*
X139261904Y-90465830D01*
X139261904Y-90465830D02*
X139309523Y-90370592D01*
X139309523Y-90370592D02*
X139309523Y-90132497D01*
X139309523Y-90132497D02*
X139261904Y-90037259D01*
X139261904Y-90037259D02*
X139214285Y-89989640D01*
X139214285Y-89989640D02*
X139119047Y-89942021D01*
X139119047Y-89942021D02*
X138928571Y-89942021D01*
X138928571Y-89942021D02*
X138833333Y-89989640D01*
X138833333Y-89989640D02*
X138785714Y-90037259D01*
X138785714Y-90037259D02*
X138738095Y-90132497D01*
X139642857Y-89561069D02*
X140261904Y-89561069D01*
X140261904Y-89561069D02*
X139928571Y-89942021D01*
X139928571Y-89942021D02*
X140071428Y-89942021D01*
X140071428Y-89942021D02*
X140166666Y-89989640D01*
X140166666Y-89989640D02*
X140214285Y-90037259D01*
X140214285Y-90037259D02*
X140261904Y-90132497D01*
X140261904Y-90132497D02*
X140261904Y-90370592D01*
X140261904Y-90370592D02*
X140214285Y-90465830D01*
X140214285Y-90465830D02*
X140166666Y-90513450D01*
X140166666Y-90513450D02*
X140071428Y-90561069D01*
X140071428Y-90561069D02*
X139785714Y-90561069D01*
X139785714Y-90561069D02*
X139690476Y-90513450D01*
X139690476Y-90513450D02*
X139642857Y-90465830D01*
X140642857Y-89656307D02*
X140690476Y-89608688D01*
X140690476Y-89608688D02*
X140785714Y-89561069D01*
X140785714Y-89561069D02*
X141023809Y-89561069D01*
X141023809Y-89561069D02*
X141119047Y-89608688D01*
X141119047Y-89608688D02*
X141166666Y-89656307D01*
X141166666Y-89656307D02*
X141214285Y-89751545D01*
X141214285Y-89751545D02*
X141214285Y-89846783D01*
X141214285Y-89846783D02*
X141166666Y-89989640D01*
X141166666Y-89989640D02*
X140595238Y-90561069D01*
X140595238Y-90561069D02*
X141214285Y-90561069D01*
X141833333Y-89561069D02*
X141928571Y-89561069D01*
X141928571Y-89561069D02*
X142023809Y-89608688D01*
X142023809Y-89608688D02*
X142071428Y-89656307D01*
X142071428Y-89656307D02*
X142119047Y-89751545D01*
X142119047Y-89751545D02*
X142166666Y-89942021D01*
X142166666Y-89942021D02*
X142166666Y-90180116D01*
X142166666Y-90180116D02*
X142119047Y-90370592D01*
X142119047Y-90370592D02*
X142071428Y-90465830D01*
X142071428Y-90465830D02*
X142023809Y-90513450D01*
X142023809Y-90513450D02*
X141928571Y-90561069D01*
X141928571Y-90561069D02*
X141833333Y-90561069D01*
X141833333Y-90561069D02*
X141738095Y-90513450D01*
X141738095Y-90513450D02*
X141690476Y-90465830D01*
X141690476Y-90465830D02*
X141642857Y-90370592D01*
X141642857Y-90370592D02*
X141595238Y-90180116D01*
X141595238Y-90180116D02*
X141595238Y-89942021D01*
X141595238Y-89942021D02*
X141642857Y-89751545D01*
X141642857Y-89751545D02*
X141690476Y-89656307D01*
X141690476Y-89656307D02*
X141738095Y-89608688D01*
X141738095Y-89608688D02*
X141833333Y-89561069D01*
X142500000Y-89561069D02*
X143119047Y-89561069D01*
X143119047Y-89561069D02*
X142785714Y-89942021D01*
X142785714Y-89942021D02*
X142928571Y-89942021D01*
X142928571Y-89942021D02*
X143023809Y-89989640D01*
X143023809Y-89989640D02*
X143071428Y-90037259D01*
X143071428Y-90037259D02*
X143119047Y-90132497D01*
X143119047Y-90132497D02*
X143119047Y-90370592D01*
X143119047Y-90370592D02*
X143071428Y-90465830D01*
X143071428Y-90465830D02*
X143023809Y-90513450D01*
X143023809Y-90513450D02*
X142928571Y-90561069D01*
X142928571Y-90561069D02*
X142642857Y-90561069D01*
X142642857Y-90561069D02*
X142547619Y-90513450D01*
X142547619Y-90513450D02*
X142500000Y-90465830D01*
X165833333Y-110854819D02*
X165500000Y-110378628D01*
X165261905Y-110854819D02*
X165261905Y-109854819D01*
X165261905Y-109854819D02*
X165642857Y-109854819D01*
X165642857Y-109854819D02*
X165738095Y-109902438D01*
X165738095Y-109902438D02*
X165785714Y-109950057D01*
X165785714Y-109950057D02*
X165833333Y-110045295D01*
X165833333Y-110045295D02*
X165833333Y-110188152D01*
X165833333Y-110188152D02*
X165785714Y-110283390D01*
X165785714Y-110283390D02*
X165738095Y-110331009D01*
X165738095Y-110331009D02*
X165642857Y-110378628D01*
X165642857Y-110378628D02*
X165261905Y-110378628D01*
X166785714Y-110854819D02*
X166214286Y-110854819D01*
X166500000Y-110854819D02*
X166500000Y-109854819D01*
X166500000Y-109854819D02*
X166404762Y-109997676D01*
X166404762Y-109997676D02*
X166309524Y-110092914D01*
X166309524Y-110092914D02*
X166214286Y-110140533D01*
X161654761Y-108854819D02*
X161083333Y-108854819D01*
X161369047Y-108854819D02*
X161369047Y-107854819D01*
X161369047Y-107854819D02*
X161273809Y-107997676D01*
X161273809Y-107997676D02*
X161178571Y-108092914D01*
X161178571Y-108092914D02*
X161083333Y-108140533D01*
X162273809Y-107854819D02*
X162369047Y-107854819D01*
X162369047Y-107854819D02*
X162464285Y-107902438D01*
X162464285Y-107902438D02*
X162511904Y-107950057D01*
X162511904Y-107950057D02*
X162559523Y-108045295D01*
X162559523Y-108045295D02*
X162607142Y-108235771D01*
X162607142Y-108235771D02*
X162607142Y-108473866D01*
X162607142Y-108473866D02*
X162559523Y-108664342D01*
X162559523Y-108664342D02*
X162511904Y-108759580D01*
X162511904Y-108759580D02*
X162464285Y-108807200D01*
X162464285Y-108807200D02*
X162369047Y-108854819D01*
X162369047Y-108854819D02*
X162273809Y-108854819D01*
X162273809Y-108854819D02*
X162178571Y-108807200D01*
X162178571Y-108807200D02*
X162130952Y-108759580D01*
X162130952Y-108759580D02*
X162083333Y-108664342D01*
X162083333Y-108664342D02*
X162035714Y-108473866D01*
X162035714Y-108473866D02*
X162035714Y-108235771D01*
X162035714Y-108235771D02*
X162083333Y-108045295D01*
X162083333Y-108045295D02*
X162130952Y-107950057D01*
X162130952Y-107950057D02*
X162178571Y-107902438D01*
X162178571Y-107902438D02*
X162273809Y-107854819D01*
X163035714Y-108854819D02*
X163035714Y-107854819D01*
X163130952Y-108473866D02*
X163416666Y-108854819D01*
X163416666Y-108188152D02*
X163035714Y-108569104D01*
X158048095Y-111864819D02*
X158048095Y-112674342D01*
X158048095Y-112674342D02*
X158095714Y-112769580D01*
X158095714Y-112769580D02*
X158143333Y-112817200D01*
X158143333Y-112817200D02*
X158238571Y-112864819D01*
X158238571Y-112864819D02*
X158429047Y-112864819D01*
X158429047Y-112864819D02*
X158524285Y-112817200D01*
X158524285Y-112817200D02*
X158571904Y-112769580D01*
X158571904Y-112769580D02*
X158619523Y-112674342D01*
X158619523Y-112674342D02*
X158619523Y-111864819D01*
X159619523Y-112864819D02*
X159048095Y-112864819D01*
X159333809Y-112864819D02*
X159333809Y-111864819D01*
X159333809Y-111864819D02*
X159238571Y-112007676D01*
X159238571Y-112007676D02*
X159143333Y-112102914D01*
X159143333Y-112102914D02*
X159048095Y-112150533D01*
X145095714Y-105331009D02*
X145429047Y-105331009D01*
X145571904Y-105854819D02*
X145095714Y-105854819D01*
X145095714Y-105854819D02*
X145095714Y-104854819D01*
X145095714Y-104854819D02*
X145571904Y-104854819D01*
X145952857Y-105807200D02*
X146095714Y-105854819D01*
X146095714Y-105854819D02*
X146333809Y-105854819D01*
X146333809Y-105854819D02*
X146429047Y-105807200D01*
X146429047Y-105807200D02*
X146476666Y-105759580D01*
X146476666Y-105759580D02*
X146524285Y-105664342D01*
X146524285Y-105664342D02*
X146524285Y-105569104D01*
X146524285Y-105569104D02*
X146476666Y-105473866D01*
X146476666Y-105473866D02*
X146429047Y-105426247D01*
X146429047Y-105426247D02*
X146333809Y-105378628D01*
X146333809Y-105378628D02*
X146143333Y-105331009D01*
X146143333Y-105331009D02*
X146048095Y-105283390D01*
X146048095Y-105283390D02*
X146000476Y-105235771D01*
X146000476Y-105235771D02*
X145952857Y-105140533D01*
X145952857Y-105140533D02*
X145952857Y-105045295D01*
X145952857Y-105045295D02*
X146000476Y-104950057D01*
X146000476Y-104950057D02*
X146048095Y-104902438D01*
X146048095Y-104902438D02*
X146143333Y-104854819D01*
X146143333Y-104854819D02*
X146381428Y-104854819D01*
X146381428Y-104854819D02*
X146524285Y-104902438D01*
X146952857Y-105854819D02*
X146952857Y-104854819D01*
X146952857Y-104854819D02*
X147333809Y-104854819D01*
X147333809Y-104854819D02*
X147429047Y-104902438D01*
X147429047Y-104902438D02*
X147476666Y-104950057D01*
X147476666Y-104950057D02*
X147524285Y-105045295D01*
X147524285Y-105045295D02*
X147524285Y-105188152D01*
X147524285Y-105188152D02*
X147476666Y-105283390D01*
X147476666Y-105283390D02*
X147429047Y-105331009D01*
X147429047Y-105331009D02*
X147333809Y-105378628D01*
X147333809Y-105378628D02*
X146952857Y-105378628D01*
X147952857Y-105473866D02*
X148714762Y-105473866D01*
X149714761Y-105854819D02*
X149143333Y-105854819D01*
X149429047Y-105854819D02*
X149429047Y-104854819D01*
X149429047Y-104854819D02*
X149333809Y-104997676D01*
X149333809Y-104997676D02*
X149238571Y-105092914D01*
X149238571Y-105092914D02*
X149143333Y-105140533D01*
X150095714Y-104950057D02*
X150143333Y-104902438D01*
X150143333Y-104902438D02*
X150238571Y-104854819D01*
X150238571Y-104854819D02*
X150476666Y-104854819D01*
X150476666Y-104854819D02*
X150571904Y-104902438D01*
X150571904Y-104902438D02*
X150619523Y-104950057D01*
X150619523Y-104950057D02*
X150667142Y-105045295D01*
X150667142Y-105045295D02*
X150667142Y-105140533D01*
X150667142Y-105140533D02*
X150619523Y-105283390D01*
X150619523Y-105283390D02*
X150048095Y-105854819D01*
X150048095Y-105854819D02*
X150667142Y-105854819D01*
X151095714Y-105331009D02*
X151429047Y-105331009D01*
X151571904Y-105854819D02*
X151095714Y-105854819D01*
X151095714Y-105854819D02*
X151095714Y-104854819D01*
X151095714Y-104854819D02*
X151571904Y-104854819D01*
D12*
%TO.C,R3*%
X134977064Y-102810000D02*
X133522936Y-102810000D01*
X134977064Y-100990000D02*
X133522936Y-100990000D01*
%TO.C,R4*%
X133522936Y-105490000D02*
X134977064Y-105490000D01*
X133522936Y-107310000D02*
X134977064Y-107310000D01*
%TO.C,C2*%
X146105002Y-90816250D02*
X145582498Y-90816250D01*
X146105002Y-89346250D02*
X145582498Y-89346250D01*
%TO.C,F2*%
X133454186Y-82196250D02*
X134658314Y-82196250D01*
X133454186Y-84016250D02*
X134658314Y-84016250D01*
%TO.C,C3*%
X172738748Y-81265000D02*
X173261252Y-81265000D01*
X172738748Y-82735000D02*
X173261252Y-82735000D01*
%TO.C,C4*%
X163238748Y-81265000D02*
X163761252Y-81265000D01*
X163238748Y-82735000D02*
X163761252Y-82735000D01*
%TO.C,C7*%
X146155002Y-82241250D02*
X145632498Y-82241250D01*
X146155002Y-80771250D02*
X145632498Y-80771250D01*
%TO.C,R6*%
X161522936Y-105490000D02*
X162977064Y-105490000D01*
X161522936Y-107310000D02*
X162977064Y-107310000D01*
%TO.C,C1*%
X142216250Y-81906250D02*
X142216250Y-82406250D01*
X142466250Y-82156250D02*
X141966250Y-82156250D01*
X141851813Y-82646250D02*
X141716250Y-82646250D01*
X141851813Y-82646250D02*
X142916250Y-83710687D01*
X139460687Y-82646250D02*
X139596250Y-82646250D01*
X139460687Y-82646250D02*
X138396250Y-83710687D01*
X142916250Y-83710687D02*
X142916250Y-87166250D01*
X138396250Y-83710687D02*
X138396250Y-87166250D01*
X142916250Y-87166250D02*
X141716250Y-87166250D01*
X138396250Y-87166250D02*
X139596250Y-87166250D01*
%TO.C,L1*%
X150206250Y-89806250D02*
X150385250Y-89806250D01*
X150206250Y-89806250D02*
X150206250Y-83606250D01*
X156406250Y-89806250D02*
X156227250Y-89806250D01*
X150206250Y-83606250D02*
X150385250Y-83606250D01*
X156406250Y-83606250D02*
X156406250Y-89806250D01*
X156406250Y-83606250D02*
X156227250Y-83606250D01*
%TO.C,R5*%
X134977064Y-98310000D02*
X133522936Y-98310000D01*
X134977064Y-96490000D02*
X133522936Y-96490000D01*
%TO.C,C8*%
X146155002Y-80041250D02*
X145632498Y-80041250D01*
X146155002Y-78571250D02*
X145632498Y-78571250D01*
%TO.C,U4*%
X147366250Y-85168750D02*
X147366250Y-83368750D01*
X147366250Y-85168750D02*
X147366250Y-85968750D01*
X144246250Y-85168750D02*
X144246250Y-84368750D01*
X144246250Y-85168750D02*
X144246250Y-85968750D01*
%TO.C,R1*%
X162977064Y-111310000D02*
X161522936Y-111310000D01*
X162977064Y-109490000D02*
X161522936Y-109490000D01*
%TO.C,U1*%
X156370000Y-119270000D02*
X140130000Y-119270000D01*
X156370000Y-111650000D02*
X156980000Y-111650000D01*
X156370000Y-111650000D02*
X156370000Y-119270000D01*
X156370000Y-95030000D02*
X156370000Y-95650000D01*
X154250000Y-95030000D02*
X156370000Y-95030000D01*
X140130000Y-119270000D02*
X140130000Y-111650000D01*
X140130000Y-95650000D02*
X140130000Y-95030000D01*
X140130000Y-95030000D02*
X142250000Y-95030000D01*
%TD*%
M02*
