%TF.GenerationSoftware,KiCad,Pcbnew,7.0.10*%
%TF.CreationDate,2024-04-03T10:39:24+02:00*%
%TF.ProjectId,Humi,48756d69-2e6b-4696-9361-645f70636258,rev?*%
%TF.SameCoordinates,Original*%
%TF.FileFunction,Legend,Bot*%
%TF.FilePolarity,Positive*%
%FSLAX46Y46*%
G04 Gerber Fmt 4.6, Leading zero omitted, Abs format (unit mm)*
G04 Created by KiCad (PCBNEW 7.0.10) date 2024-04-03 10:39:24*
%MOMM*%
%LPD*%
G01*
G04 APERTURE LIST*
%ADD10C,0.150000*%
%ADD11C,0.120000*%
G04 APERTURE END LIST*
D10*
X155163220Y-78619819D02*
X155163220Y-77619819D01*
X155163220Y-77619819D02*
X154925125Y-77619819D01*
X154925125Y-77619819D02*
X154782268Y-77667438D01*
X154782268Y-77667438D02*
X154687030Y-77762676D01*
X154687030Y-77762676D02*
X154639411Y-77857914D01*
X154639411Y-77857914D02*
X154591792Y-78048390D01*
X154591792Y-78048390D02*
X154591792Y-78191247D01*
X154591792Y-78191247D02*
X154639411Y-78381723D01*
X154639411Y-78381723D02*
X154687030Y-78476961D01*
X154687030Y-78476961D02*
X154782268Y-78572200D01*
X154782268Y-78572200D02*
X154925125Y-78619819D01*
X154925125Y-78619819D02*
X155163220Y-78619819D01*
X153782268Y-78572200D02*
X153877506Y-78619819D01*
X153877506Y-78619819D02*
X154067982Y-78619819D01*
X154067982Y-78619819D02*
X154163220Y-78572200D01*
X154163220Y-78572200D02*
X154210839Y-78476961D01*
X154210839Y-78476961D02*
X154210839Y-78096009D01*
X154210839Y-78096009D02*
X154163220Y-78000771D01*
X154163220Y-78000771D02*
X154067982Y-77953152D01*
X154067982Y-77953152D02*
X153877506Y-77953152D01*
X153877506Y-77953152D02*
X153782268Y-78000771D01*
X153782268Y-78000771D02*
X153734649Y-78096009D01*
X153734649Y-78096009D02*
X153734649Y-78191247D01*
X153734649Y-78191247D02*
X154210839Y-78286485D01*
X153353696Y-78572200D02*
X153258458Y-78619819D01*
X153258458Y-78619819D02*
X153067982Y-78619819D01*
X153067982Y-78619819D02*
X152972744Y-78572200D01*
X152972744Y-78572200D02*
X152925125Y-78476961D01*
X152925125Y-78476961D02*
X152925125Y-78429342D01*
X152925125Y-78429342D02*
X152972744Y-78334104D01*
X152972744Y-78334104D02*
X153067982Y-78286485D01*
X153067982Y-78286485D02*
X153210839Y-78286485D01*
X153210839Y-78286485D02*
X153306077Y-78238866D01*
X153306077Y-78238866D02*
X153353696Y-78143628D01*
X153353696Y-78143628D02*
X153353696Y-78096009D01*
X153353696Y-78096009D02*
X153306077Y-78000771D01*
X153306077Y-78000771D02*
X153210839Y-77953152D01*
X153210839Y-77953152D02*
X153067982Y-77953152D01*
X153067982Y-77953152D02*
X152972744Y-78000771D01*
X152496553Y-78619819D02*
X152496553Y-77953152D01*
X152496553Y-77619819D02*
X152544172Y-77667438D01*
X152544172Y-77667438D02*
X152496553Y-77715057D01*
X152496553Y-77715057D02*
X152448934Y-77667438D01*
X152448934Y-77667438D02*
X152496553Y-77619819D01*
X152496553Y-77619819D02*
X152496553Y-77715057D01*
X151591792Y-77953152D02*
X151591792Y-78762676D01*
X151591792Y-78762676D02*
X151639411Y-78857914D01*
X151639411Y-78857914D02*
X151687030Y-78905533D01*
X151687030Y-78905533D02*
X151782268Y-78953152D01*
X151782268Y-78953152D02*
X151925125Y-78953152D01*
X151925125Y-78953152D02*
X152020363Y-78905533D01*
X151591792Y-78572200D02*
X151687030Y-78619819D01*
X151687030Y-78619819D02*
X151877506Y-78619819D01*
X151877506Y-78619819D02*
X151972744Y-78572200D01*
X151972744Y-78572200D02*
X152020363Y-78524580D01*
X152020363Y-78524580D02*
X152067982Y-78429342D01*
X152067982Y-78429342D02*
X152067982Y-78143628D01*
X152067982Y-78143628D02*
X152020363Y-78048390D01*
X152020363Y-78048390D02*
X151972744Y-78000771D01*
X151972744Y-78000771D02*
X151877506Y-77953152D01*
X151877506Y-77953152D02*
X151687030Y-77953152D01*
X151687030Y-77953152D02*
X151591792Y-78000771D01*
X151115601Y-77953152D02*
X151115601Y-78619819D01*
X151115601Y-78048390D02*
X151067982Y-78000771D01*
X151067982Y-78000771D02*
X150972744Y-77953152D01*
X150972744Y-77953152D02*
X150829887Y-77953152D01*
X150829887Y-77953152D02*
X150734649Y-78000771D01*
X150734649Y-78000771D02*
X150687030Y-78096009D01*
X150687030Y-78096009D02*
X150687030Y-78619819D01*
X149829887Y-78572200D02*
X149925125Y-78619819D01*
X149925125Y-78619819D02*
X150115601Y-78619819D01*
X150115601Y-78619819D02*
X150210839Y-78572200D01*
X150210839Y-78572200D02*
X150258458Y-78476961D01*
X150258458Y-78476961D02*
X150258458Y-78096009D01*
X150258458Y-78096009D02*
X150210839Y-78000771D01*
X150210839Y-78000771D02*
X150115601Y-77953152D01*
X150115601Y-77953152D02*
X149925125Y-77953152D01*
X149925125Y-77953152D02*
X149829887Y-78000771D01*
X149829887Y-78000771D02*
X149782268Y-78096009D01*
X149782268Y-78096009D02*
X149782268Y-78191247D01*
X149782268Y-78191247D02*
X150258458Y-78286485D01*
X148925125Y-78619819D02*
X148925125Y-77619819D01*
X148925125Y-78572200D02*
X149020363Y-78619819D01*
X149020363Y-78619819D02*
X149210839Y-78619819D01*
X149210839Y-78619819D02*
X149306077Y-78572200D01*
X149306077Y-78572200D02*
X149353696Y-78524580D01*
X149353696Y-78524580D02*
X149401315Y-78429342D01*
X149401315Y-78429342D02*
X149401315Y-78143628D01*
X149401315Y-78143628D02*
X149353696Y-78048390D01*
X149353696Y-78048390D02*
X149306077Y-78000771D01*
X149306077Y-78000771D02*
X149210839Y-77953152D01*
X149210839Y-77953152D02*
X149020363Y-77953152D01*
X149020363Y-77953152D02*
X148925125Y-78000771D01*
X147687029Y-78619819D02*
X147687029Y-77619819D01*
X147687029Y-78000771D02*
X147591791Y-77953152D01*
X147591791Y-77953152D02*
X147401315Y-77953152D01*
X147401315Y-77953152D02*
X147306077Y-78000771D01*
X147306077Y-78000771D02*
X147258458Y-78048390D01*
X147258458Y-78048390D02*
X147210839Y-78143628D01*
X147210839Y-78143628D02*
X147210839Y-78429342D01*
X147210839Y-78429342D02*
X147258458Y-78524580D01*
X147258458Y-78524580D02*
X147306077Y-78572200D01*
X147306077Y-78572200D02*
X147401315Y-78619819D01*
X147401315Y-78619819D02*
X147591791Y-78619819D01*
X147591791Y-78619819D02*
X147687029Y-78572200D01*
X146877505Y-77953152D02*
X146639410Y-78619819D01*
X146401315Y-77953152D02*
X146639410Y-78619819D01*
X146639410Y-78619819D02*
X146734648Y-78857914D01*
X146734648Y-78857914D02*
X146782267Y-78905533D01*
X146782267Y-78905533D02*
X146877505Y-78953152D01*
X145306076Y-78572200D02*
X145163219Y-78619819D01*
X145163219Y-78619819D02*
X144925124Y-78619819D01*
X144925124Y-78619819D02*
X144829886Y-78572200D01*
X144829886Y-78572200D02*
X144782267Y-78524580D01*
X144782267Y-78524580D02*
X144734648Y-78429342D01*
X144734648Y-78429342D02*
X144734648Y-78334104D01*
X144734648Y-78334104D02*
X144782267Y-78238866D01*
X144782267Y-78238866D02*
X144829886Y-78191247D01*
X144829886Y-78191247D02*
X144925124Y-78143628D01*
X144925124Y-78143628D02*
X145115600Y-78096009D01*
X145115600Y-78096009D02*
X145210838Y-78048390D01*
X145210838Y-78048390D02*
X145258457Y-78000771D01*
X145258457Y-78000771D02*
X145306076Y-77905533D01*
X145306076Y-77905533D02*
X145306076Y-77810295D01*
X145306076Y-77810295D02*
X145258457Y-77715057D01*
X145258457Y-77715057D02*
X145210838Y-77667438D01*
X145210838Y-77667438D02*
X145115600Y-77619819D01*
X145115600Y-77619819D02*
X144877505Y-77619819D01*
X144877505Y-77619819D02*
X144734648Y-77667438D01*
X143925124Y-78572200D02*
X144020362Y-78619819D01*
X144020362Y-78619819D02*
X144210838Y-78619819D01*
X144210838Y-78619819D02*
X144306076Y-78572200D01*
X144306076Y-78572200D02*
X144353695Y-78476961D01*
X144353695Y-78476961D02*
X144353695Y-78096009D01*
X144353695Y-78096009D02*
X144306076Y-78000771D01*
X144306076Y-78000771D02*
X144210838Y-77953152D01*
X144210838Y-77953152D02*
X144020362Y-77953152D01*
X144020362Y-77953152D02*
X143925124Y-78000771D01*
X143925124Y-78000771D02*
X143877505Y-78096009D01*
X143877505Y-78096009D02*
X143877505Y-78191247D01*
X143877505Y-78191247D02*
X144353695Y-78286485D01*
X143448933Y-78619819D02*
X143448933Y-77619819D01*
X143448933Y-78000771D02*
X143353695Y-77953152D01*
X143353695Y-77953152D02*
X143163219Y-77953152D01*
X143163219Y-77953152D02*
X143067981Y-78000771D01*
X143067981Y-78000771D02*
X143020362Y-78048390D01*
X143020362Y-78048390D02*
X142972743Y-78143628D01*
X142972743Y-78143628D02*
X142972743Y-78429342D01*
X142972743Y-78429342D02*
X143020362Y-78524580D01*
X143020362Y-78524580D02*
X143067981Y-78572200D01*
X143067981Y-78572200D02*
X143163219Y-78619819D01*
X143163219Y-78619819D02*
X143353695Y-78619819D01*
X143353695Y-78619819D02*
X143448933Y-78572200D01*
X142115600Y-78619819D02*
X142115600Y-78096009D01*
X142115600Y-78096009D02*
X142163219Y-78000771D01*
X142163219Y-78000771D02*
X142258457Y-77953152D01*
X142258457Y-77953152D02*
X142448933Y-77953152D01*
X142448933Y-77953152D02*
X142544171Y-78000771D01*
X142115600Y-78572200D02*
X142210838Y-78619819D01*
X142210838Y-78619819D02*
X142448933Y-78619819D01*
X142448933Y-78619819D02*
X142544171Y-78572200D01*
X142544171Y-78572200D02*
X142591790Y-78476961D01*
X142591790Y-78476961D02*
X142591790Y-78381723D01*
X142591790Y-78381723D02*
X142544171Y-78286485D01*
X142544171Y-78286485D02*
X142448933Y-78238866D01*
X142448933Y-78238866D02*
X142210838Y-78238866D01*
X142210838Y-78238866D02*
X142115600Y-78191247D01*
X141687028Y-78572200D02*
X141591790Y-78619819D01*
X141591790Y-78619819D02*
X141401314Y-78619819D01*
X141401314Y-78619819D02*
X141306076Y-78572200D01*
X141306076Y-78572200D02*
X141258457Y-78476961D01*
X141258457Y-78476961D02*
X141258457Y-78429342D01*
X141258457Y-78429342D02*
X141306076Y-78334104D01*
X141306076Y-78334104D02*
X141401314Y-78286485D01*
X141401314Y-78286485D02*
X141544171Y-78286485D01*
X141544171Y-78286485D02*
X141639409Y-78238866D01*
X141639409Y-78238866D02*
X141687028Y-78143628D01*
X141687028Y-78143628D02*
X141687028Y-78096009D01*
X141687028Y-78096009D02*
X141639409Y-78000771D01*
X141639409Y-78000771D02*
X141544171Y-77953152D01*
X141544171Y-77953152D02*
X141401314Y-77953152D01*
X141401314Y-77953152D02*
X141306076Y-78000771D01*
X140972742Y-77953152D02*
X140591790Y-77953152D01*
X140829885Y-77619819D02*
X140829885Y-78476961D01*
X140829885Y-78476961D02*
X140782266Y-78572200D01*
X140782266Y-78572200D02*
X140687028Y-78619819D01*
X140687028Y-78619819D02*
X140591790Y-78619819D01*
X140258456Y-78619819D02*
X140258456Y-77953152D01*
X140258456Y-77619819D02*
X140306075Y-77667438D01*
X140306075Y-77667438D02*
X140258456Y-77715057D01*
X140258456Y-77715057D02*
X140210837Y-77667438D01*
X140210837Y-77667438D02*
X140258456Y-77619819D01*
X140258456Y-77619819D02*
X140258456Y-77715057D01*
X139353695Y-78619819D02*
X139353695Y-78096009D01*
X139353695Y-78096009D02*
X139401314Y-78000771D01*
X139401314Y-78000771D02*
X139496552Y-77953152D01*
X139496552Y-77953152D02*
X139687028Y-77953152D01*
X139687028Y-77953152D02*
X139782266Y-78000771D01*
X139353695Y-78572200D02*
X139448933Y-78619819D01*
X139448933Y-78619819D02*
X139687028Y-78619819D01*
X139687028Y-78619819D02*
X139782266Y-78572200D01*
X139782266Y-78572200D02*
X139829885Y-78476961D01*
X139829885Y-78476961D02*
X139829885Y-78381723D01*
X139829885Y-78381723D02*
X139782266Y-78286485D01*
X139782266Y-78286485D02*
X139687028Y-78238866D01*
X139687028Y-78238866D02*
X139448933Y-78238866D01*
X139448933Y-78238866D02*
X139353695Y-78191247D01*
X138877504Y-77953152D02*
X138877504Y-78619819D01*
X138877504Y-78048390D02*
X138829885Y-78000771D01*
X138829885Y-78000771D02*
X138734647Y-77953152D01*
X138734647Y-77953152D02*
X138591790Y-77953152D01*
X138591790Y-77953152D02*
X138496552Y-78000771D01*
X138496552Y-78000771D02*
X138448933Y-78096009D01*
X138448933Y-78096009D02*
X138448933Y-78619819D01*
X137306075Y-77619819D02*
X136639409Y-77619819D01*
X136639409Y-77619819D02*
X137306075Y-78619819D01*
X137306075Y-78619819D02*
X136639409Y-78619819D01*
X136258456Y-78619819D02*
X136258456Y-77953152D01*
X136258456Y-77619819D02*
X136306075Y-77667438D01*
X136306075Y-77667438D02*
X136258456Y-77715057D01*
X136258456Y-77715057D02*
X136210837Y-77667438D01*
X136210837Y-77667438D02*
X136258456Y-77619819D01*
X136258456Y-77619819D02*
X136258456Y-77715057D01*
X135401314Y-78572200D02*
X135496552Y-78619819D01*
X135496552Y-78619819D02*
X135687028Y-78619819D01*
X135687028Y-78619819D02*
X135782266Y-78572200D01*
X135782266Y-78572200D02*
X135829885Y-78476961D01*
X135829885Y-78476961D02*
X135829885Y-78096009D01*
X135829885Y-78096009D02*
X135782266Y-78000771D01*
X135782266Y-78000771D02*
X135687028Y-77953152D01*
X135687028Y-77953152D02*
X135496552Y-77953152D01*
X135496552Y-77953152D02*
X135401314Y-78000771D01*
X135401314Y-78000771D02*
X135353695Y-78096009D01*
X135353695Y-78096009D02*
X135353695Y-78191247D01*
X135353695Y-78191247D02*
X135829885Y-78286485D01*
X134925123Y-77953152D02*
X134925123Y-78619819D01*
X134925123Y-78048390D02*
X134877504Y-78000771D01*
X134877504Y-78000771D02*
X134782266Y-77953152D01*
X134782266Y-77953152D02*
X134639409Y-77953152D01*
X134639409Y-77953152D02*
X134544171Y-78000771D01*
X134544171Y-78000771D02*
X134496552Y-78096009D01*
X134496552Y-78096009D02*
X134496552Y-78619819D01*
X134163218Y-77953152D02*
X133782266Y-77953152D01*
X134020361Y-77619819D02*
X134020361Y-78476961D01*
X134020361Y-78476961D02*
X133972742Y-78572200D01*
X133972742Y-78572200D02*
X133877504Y-78619819D01*
X133877504Y-78619819D02*
X133782266Y-78619819D01*
X133067980Y-78572200D02*
X133163218Y-78619819D01*
X133163218Y-78619819D02*
X133353694Y-78619819D01*
X133353694Y-78619819D02*
X133448932Y-78572200D01*
X133448932Y-78572200D02*
X133496551Y-78476961D01*
X133496551Y-78476961D02*
X133496551Y-78096009D01*
X133496551Y-78096009D02*
X133448932Y-78000771D01*
X133448932Y-78000771D02*
X133353694Y-77953152D01*
X133353694Y-77953152D02*
X133163218Y-77953152D01*
X133163218Y-77953152D02*
X133067980Y-78000771D01*
X133067980Y-78000771D02*
X133020361Y-78096009D01*
X133020361Y-78096009D02*
X133020361Y-78191247D01*
X133020361Y-78191247D02*
X133496551Y-78286485D01*
X132591789Y-78619819D02*
X132591789Y-77619819D01*
X132496551Y-78238866D02*
X132210837Y-78619819D01*
X132210837Y-77953152D02*
X132591789Y-78334104D01*
X126250000Y-94400000D02*
X126500000Y-94150000D01*
X126500000Y-94150000D02*
X126500000Y-97100000D01*
X126750000Y-94400000D02*
X126500000Y-94150000D01*
X172091792Y-102724819D02*
X172425125Y-102248628D01*
X172663220Y-102724819D02*
X172663220Y-101724819D01*
X172663220Y-101724819D02*
X172282268Y-101724819D01*
X172282268Y-101724819D02*
X172187030Y-101772438D01*
X172187030Y-101772438D02*
X172139411Y-101820057D01*
X172139411Y-101820057D02*
X172091792Y-101915295D01*
X172091792Y-101915295D02*
X172091792Y-102058152D01*
X172091792Y-102058152D02*
X172139411Y-102153390D01*
X172139411Y-102153390D02*
X172187030Y-102201009D01*
X172187030Y-102201009D02*
X172282268Y-102248628D01*
X172282268Y-102248628D02*
X172663220Y-102248628D01*
X171758458Y-101724819D02*
X171091792Y-102724819D01*
X171091792Y-101724819D02*
X171758458Y-102724819D01*
X172806077Y-104324819D02*
X172234649Y-104324819D01*
X172520363Y-105324819D02*
X172520363Y-104324819D01*
X171996553Y-104324819D02*
X171329887Y-105324819D01*
X171329887Y-104324819D02*
X171996553Y-105324819D01*
X122436779Y-75911133D02*
X123198684Y-75911133D01*
X172039411Y-99272438D02*
X172134649Y-99224819D01*
X172134649Y-99224819D02*
X172277506Y-99224819D01*
X172277506Y-99224819D02*
X172420363Y-99272438D01*
X172420363Y-99272438D02*
X172515601Y-99367676D01*
X172515601Y-99367676D02*
X172563220Y-99462914D01*
X172563220Y-99462914D02*
X172610839Y-99653390D01*
X172610839Y-99653390D02*
X172610839Y-99796247D01*
X172610839Y-99796247D02*
X172563220Y-99986723D01*
X172563220Y-99986723D02*
X172515601Y-100081961D01*
X172515601Y-100081961D02*
X172420363Y-100177200D01*
X172420363Y-100177200D02*
X172277506Y-100224819D01*
X172277506Y-100224819D02*
X172182268Y-100224819D01*
X172182268Y-100224819D02*
X172039411Y-100177200D01*
X172039411Y-100177200D02*
X171991792Y-100129580D01*
X171991792Y-100129580D02*
X171991792Y-99796247D01*
X171991792Y-99796247D02*
X172182268Y-99796247D01*
X171563220Y-100224819D02*
X171563220Y-99224819D01*
X171563220Y-99224819D02*
X170991792Y-100224819D01*
X170991792Y-100224819D02*
X170991792Y-99224819D01*
X170515601Y-100224819D02*
X170515601Y-99224819D01*
X170515601Y-99224819D02*
X170277506Y-99224819D01*
X170277506Y-99224819D02*
X170134649Y-99272438D01*
X170134649Y-99272438D02*
X170039411Y-99367676D01*
X170039411Y-99367676D02*
X169991792Y-99462914D01*
X169991792Y-99462914D02*
X169944173Y-99653390D01*
X169944173Y-99653390D02*
X169944173Y-99796247D01*
X169944173Y-99796247D02*
X169991792Y-99986723D01*
X169991792Y-99986723D02*
X170039411Y-100081961D01*
X170039411Y-100081961D02*
X170134649Y-100177200D01*
X170134649Y-100177200D02*
X170277506Y-100224819D01*
X170277506Y-100224819D02*
X170515601Y-100224819D01*
X172039411Y-90772438D02*
X172134649Y-90724819D01*
X172134649Y-90724819D02*
X172277506Y-90724819D01*
X172277506Y-90724819D02*
X172420363Y-90772438D01*
X172420363Y-90772438D02*
X172515601Y-90867676D01*
X172515601Y-90867676D02*
X172563220Y-90962914D01*
X172563220Y-90962914D02*
X172610839Y-91153390D01*
X172610839Y-91153390D02*
X172610839Y-91296247D01*
X172610839Y-91296247D02*
X172563220Y-91486723D01*
X172563220Y-91486723D02*
X172515601Y-91581961D01*
X172515601Y-91581961D02*
X172420363Y-91677200D01*
X172420363Y-91677200D02*
X172277506Y-91724819D01*
X172277506Y-91724819D02*
X172182268Y-91724819D01*
X172182268Y-91724819D02*
X172039411Y-91677200D01*
X172039411Y-91677200D02*
X171991792Y-91629580D01*
X171991792Y-91629580D02*
X171991792Y-91296247D01*
X171991792Y-91296247D02*
X172182268Y-91296247D01*
X171563220Y-91724819D02*
X171563220Y-90724819D01*
X171563220Y-90724819D02*
X170991792Y-91724819D01*
X170991792Y-91724819D02*
X170991792Y-90724819D01*
X170515601Y-91724819D02*
X170515601Y-90724819D01*
X170515601Y-90724819D02*
X170277506Y-90724819D01*
X170277506Y-90724819D02*
X170134649Y-90772438D01*
X170134649Y-90772438D02*
X170039411Y-90867676D01*
X170039411Y-90867676D02*
X169991792Y-90962914D01*
X169991792Y-90962914D02*
X169944173Y-91153390D01*
X169944173Y-91153390D02*
X169944173Y-91296247D01*
X169944173Y-91296247D02*
X169991792Y-91486723D01*
X169991792Y-91486723D02*
X170039411Y-91581961D01*
X170039411Y-91581961D02*
X170134649Y-91677200D01*
X170134649Y-91677200D02*
X170277506Y-91724819D01*
X170277506Y-91724819D02*
X170515601Y-91724819D01*
X120211133Y-76263220D02*
X120211133Y-75501316D01*
X119830180Y-75882268D02*
X120592085Y-75882268D01*
X116806077Y-87619819D02*
X116234649Y-87619819D01*
X116520363Y-88619819D02*
X116520363Y-87619819D01*
X115996553Y-87619819D02*
X115329887Y-88619819D01*
X115329887Y-87619819D02*
X115996553Y-88619819D01*
X172606077Y-93324819D02*
X172034649Y-93324819D01*
X172320363Y-94324819D02*
X172320363Y-93324819D01*
X171796553Y-93324819D02*
X171129887Y-94324819D01*
X171129887Y-93324819D02*
X171796553Y-94324819D01*
X116216792Y-90769819D02*
X116550125Y-90293628D01*
X116788220Y-90769819D02*
X116788220Y-89769819D01*
X116788220Y-89769819D02*
X116407268Y-89769819D01*
X116407268Y-89769819D02*
X116312030Y-89817438D01*
X116312030Y-89817438D02*
X116264411Y-89865057D01*
X116264411Y-89865057D02*
X116216792Y-89960295D01*
X116216792Y-89960295D02*
X116216792Y-90103152D01*
X116216792Y-90103152D02*
X116264411Y-90198390D01*
X116264411Y-90198390D02*
X116312030Y-90246009D01*
X116312030Y-90246009D02*
X116407268Y-90293628D01*
X116407268Y-90293628D02*
X116788220Y-90293628D01*
X115883458Y-89769819D02*
X115216792Y-90769819D01*
X115216792Y-89769819D02*
X115883458Y-90769819D01*
X132972744Y-97759819D02*
X132782268Y-97759819D01*
X132782268Y-97759819D02*
X132687030Y-97807438D01*
X132687030Y-97807438D02*
X132591792Y-97902676D01*
X132591792Y-97902676D02*
X132544173Y-98093152D01*
X132544173Y-98093152D02*
X132544173Y-98426485D01*
X132544173Y-98426485D02*
X132591792Y-98616961D01*
X132591792Y-98616961D02*
X132687030Y-98712200D01*
X132687030Y-98712200D02*
X132782268Y-98759819D01*
X132782268Y-98759819D02*
X132972744Y-98759819D01*
X132972744Y-98759819D02*
X133067982Y-98712200D01*
X133067982Y-98712200D02*
X133163220Y-98616961D01*
X133163220Y-98616961D02*
X133210839Y-98426485D01*
X133210839Y-98426485D02*
X133210839Y-98093152D01*
X133210839Y-98093152D02*
X133163220Y-97902676D01*
X133163220Y-97902676D02*
X133067982Y-97807438D01*
X133067982Y-97807438D02*
X132972744Y-97759819D01*
X132115601Y-98759819D02*
X132115601Y-97759819D01*
X132115601Y-97759819D02*
X131544173Y-98759819D01*
X131544173Y-98759819D02*
X131544173Y-97759819D01*
X131067982Y-98664580D02*
X131020363Y-98712200D01*
X131020363Y-98712200D02*
X131067982Y-98759819D01*
X131067982Y-98759819D02*
X131115601Y-98712200D01*
X131115601Y-98712200D02*
X131067982Y-98664580D01*
X131067982Y-98664580D02*
X131067982Y-98759819D01*
X131067982Y-98140771D02*
X131020363Y-98188390D01*
X131020363Y-98188390D02*
X131067982Y-98236009D01*
X131067982Y-98236009D02*
X131115601Y-98188390D01*
X131115601Y-98188390D02*
X131067982Y-98140771D01*
X131067982Y-98140771D02*
X131067982Y-98236009D01*
X129067982Y-98759819D02*
X129067982Y-97759819D01*
X129067982Y-97759819D02*
X128496554Y-98759819D01*
X128496554Y-98759819D02*
X128496554Y-97759819D01*
X127829887Y-97759819D02*
X127639411Y-97759819D01*
X127639411Y-97759819D02*
X127544173Y-97807438D01*
X127544173Y-97807438D02*
X127448935Y-97902676D01*
X127448935Y-97902676D02*
X127401316Y-98093152D01*
X127401316Y-98093152D02*
X127401316Y-98426485D01*
X127401316Y-98426485D02*
X127448935Y-98616961D01*
X127448935Y-98616961D02*
X127544173Y-98712200D01*
X127544173Y-98712200D02*
X127639411Y-98759819D01*
X127639411Y-98759819D02*
X127829887Y-98759819D01*
X127829887Y-98759819D02*
X127925125Y-98712200D01*
X127925125Y-98712200D02*
X128020363Y-98616961D01*
X128020363Y-98616961D02*
X128067982Y-98426485D01*
X128067982Y-98426485D02*
X128067982Y-98093152D01*
X128067982Y-98093152D02*
X128020363Y-97902676D01*
X128020363Y-97902676D02*
X127925125Y-97807438D01*
X127925125Y-97807438D02*
X127829887Y-97759819D01*
X126401316Y-98759819D02*
X126734649Y-98283628D01*
X126972744Y-98759819D02*
X126972744Y-97759819D01*
X126972744Y-97759819D02*
X126591792Y-97759819D01*
X126591792Y-97759819D02*
X126496554Y-97807438D01*
X126496554Y-97807438D02*
X126448935Y-97855057D01*
X126448935Y-97855057D02*
X126401316Y-97950295D01*
X126401316Y-97950295D02*
X126401316Y-98093152D01*
X126401316Y-98093152D02*
X126448935Y-98188390D01*
X126448935Y-98188390D02*
X126496554Y-98236009D01*
X126496554Y-98236009D02*
X126591792Y-98283628D01*
X126591792Y-98283628D02*
X126972744Y-98283628D01*
X125972744Y-98759819D02*
X125972744Y-97759819D01*
X125972744Y-97759819D02*
X125639411Y-98474104D01*
X125639411Y-98474104D02*
X125306078Y-97759819D01*
X125306078Y-97759819D02*
X125306078Y-98759819D01*
X124877506Y-98474104D02*
X124401316Y-98474104D01*
X124972744Y-98759819D02*
X124639411Y-97759819D01*
X124639411Y-97759819D02*
X124306078Y-98759819D01*
X123496554Y-98759819D02*
X123972744Y-98759819D01*
X123972744Y-98759819D02*
X123972744Y-97759819D01*
X122401315Y-98759819D02*
X122401315Y-97759819D01*
X122401315Y-97759819D02*
X122067982Y-98474104D01*
X122067982Y-98474104D02*
X121734649Y-97759819D01*
X121734649Y-97759819D02*
X121734649Y-98759819D01*
X121067982Y-97759819D02*
X120877506Y-97759819D01*
X120877506Y-97759819D02*
X120782268Y-97807438D01*
X120782268Y-97807438D02*
X120687030Y-97902676D01*
X120687030Y-97902676D02*
X120639411Y-98093152D01*
X120639411Y-98093152D02*
X120639411Y-98426485D01*
X120639411Y-98426485D02*
X120687030Y-98616961D01*
X120687030Y-98616961D02*
X120782268Y-98712200D01*
X120782268Y-98712200D02*
X120877506Y-98759819D01*
X120877506Y-98759819D02*
X121067982Y-98759819D01*
X121067982Y-98759819D02*
X121163220Y-98712200D01*
X121163220Y-98712200D02*
X121258458Y-98616961D01*
X121258458Y-98616961D02*
X121306077Y-98426485D01*
X121306077Y-98426485D02*
X121306077Y-98093152D01*
X121306077Y-98093152D02*
X121258458Y-97902676D01*
X121258458Y-97902676D02*
X121163220Y-97807438D01*
X121163220Y-97807438D02*
X121067982Y-97759819D01*
X120210839Y-98759819D02*
X120210839Y-97759819D01*
X120210839Y-97759819D02*
X119972744Y-97759819D01*
X119972744Y-97759819D02*
X119829887Y-97807438D01*
X119829887Y-97807438D02*
X119734649Y-97902676D01*
X119734649Y-97902676D02*
X119687030Y-97997914D01*
X119687030Y-97997914D02*
X119639411Y-98188390D01*
X119639411Y-98188390D02*
X119639411Y-98331247D01*
X119639411Y-98331247D02*
X119687030Y-98521723D01*
X119687030Y-98521723D02*
X119734649Y-98616961D01*
X119734649Y-98616961D02*
X119829887Y-98712200D01*
X119829887Y-98712200D02*
X119972744Y-98759819D01*
X119972744Y-98759819D02*
X120210839Y-98759819D01*
X119210839Y-98236009D02*
X118877506Y-98236009D01*
X118734649Y-98759819D02*
X119210839Y-98759819D01*
X119210839Y-98759819D02*
X119210839Y-97759819D01*
X119210839Y-97759819D02*
X118734649Y-97759819D01*
X132972744Y-99369819D02*
X132782268Y-99369819D01*
X132782268Y-99369819D02*
X132687030Y-99417438D01*
X132687030Y-99417438D02*
X132591792Y-99512676D01*
X132591792Y-99512676D02*
X132544173Y-99703152D01*
X132544173Y-99703152D02*
X132544173Y-100036485D01*
X132544173Y-100036485D02*
X132591792Y-100226961D01*
X132591792Y-100226961D02*
X132687030Y-100322200D01*
X132687030Y-100322200D02*
X132782268Y-100369819D01*
X132782268Y-100369819D02*
X132972744Y-100369819D01*
X132972744Y-100369819D02*
X133067982Y-100322200D01*
X133067982Y-100322200D02*
X133163220Y-100226961D01*
X133163220Y-100226961D02*
X133210839Y-100036485D01*
X133210839Y-100036485D02*
X133210839Y-99703152D01*
X133210839Y-99703152D02*
X133163220Y-99512676D01*
X133163220Y-99512676D02*
X133067982Y-99417438D01*
X133067982Y-99417438D02*
X132972744Y-99369819D01*
X131782268Y-99846009D02*
X132115601Y-99846009D01*
X132115601Y-100369819D02*
X132115601Y-99369819D01*
X132115601Y-99369819D02*
X131639411Y-99369819D01*
X130925125Y-99846009D02*
X131258458Y-99846009D01*
X131258458Y-100369819D02*
X131258458Y-99369819D01*
X131258458Y-99369819D02*
X130782268Y-99369819D01*
X130401315Y-100274580D02*
X130353696Y-100322200D01*
X130353696Y-100322200D02*
X130401315Y-100369819D01*
X130401315Y-100369819D02*
X130448934Y-100322200D01*
X130448934Y-100322200D02*
X130401315Y-100274580D01*
X130401315Y-100274580D02*
X130401315Y-100369819D01*
X130401315Y-99750771D02*
X130353696Y-99798390D01*
X130353696Y-99798390D02*
X130401315Y-99846009D01*
X130401315Y-99846009D02*
X130448934Y-99798390D01*
X130448934Y-99798390D02*
X130401315Y-99750771D01*
X130401315Y-99750771D02*
X130401315Y-99846009D01*
X129163220Y-100369819D02*
X129163220Y-99369819D01*
X129163220Y-99369819D02*
X128782268Y-99369819D01*
X128782268Y-99369819D02*
X128687030Y-99417438D01*
X128687030Y-99417438D02*
X128639411Y-99465057D01*
X128639411Y-99465057D02*
X128591792Y-99560295D01*
X128591792Y-99560295D02*
X128591792Y-99703152D01*
X128591792Y-99703152D02*
X128639411Y-99798390D01*
X128639411Y-99798390D02*
X128687030Y-99846009D01*
X128687030Y-99846009D02*
X128782268Y-99893628D01*
X128782268Y-99893628D02*
X129163220Y-99893628D01*
X127591792Y-100369819D02*
X127925125Y-99893628D01*
X128163220Y-100369819D02*
X128163220Y-99369819D01*
X128163220Y-99369819D02*
X127782268Y-99369819D01*
X127782268Y-99369819D02*
X127687030Y-99417438D01*
X127687030Y-99417438D02*
X127639411Y-99465057D01*
X127639411Y-99465057D02*
X127591792Y-99560295D01*
X127591792Y-99560295D02*
X127591792Y-99703152D01*
X127591792Y-99703152D02*
X127639411Y-99798390D01*
X127639411Y-99798390D02*
X127687030Y-99846009D01*
X127687030Y-99846009D02*
X127782268Y-99893628D01*
X127782268Y-99893628D02*
X128163220Y-99893628D01*
X126972744Y-99369819D02*
X126782268Y-99369819D01*
X126782268Y-99369819D02*
X126687030Y-99417438D01*
X126687030Y-99417438D02*
X126591792Y-99512676D01*
X126591792Y-99512676D02*
X126544173Y-99703152D01*
X126544173Y-99703152D02*
X126544173Y-100036485D01*
X126544173Y-100036485D02*
X126591792Y-100226961D01*
X126591792Y-100226961D02*
X126687030Y-100322200D01*
X126687030Y-100322200D02*
X126782268Y-100369819D01*
X126782268Y-100369819D02*
X126972744Y-100369819D01*
X126972744Y-100369819D02*
X127067982Y-100322200D01*
X127067982Y-100322200D02*
X127163220Y-100226961D01*
X127163220Y-100226961D02*
X127210839Y-100036485D01*
X127210839Y-100036485D02*
X127210839Y-99703152D01*
X127210839Y-99703152D02*
X127163220Y-99512676D01*
X127163220Y-99512676D02*
X127067982Y-99417438D01*
X127067982Y-99417438D02*
X126972744Y-99369819D01*
X125591792Y-99417438D02*
X125687030Y-99369819D01*
X125687030Y-99369819D02*
X125829887Y-99369819D01*
X125829887Y-99369819D02*
X125972744Y-99417438D01*
X125972744Y-99417438D02*
X126067982Y-99512676D01*
X126067982Y-99512676D02*
X126115601Y-99607914D01*
X126115601Y-99607914D02*
X126163220Y-99798390D01*
X126163220Y-99798390D02*
X126163220Y-99941247D01*
X126163220Y-99941247D02*
X126115601Y-100131723D01*
X126115601Y-100131723D02*
X126067982Y-100226961D01*
X126067982Y-100226961D02*
X125972744Y-100322200D01*
X125972744Y-100322200D02*
X125829887Y-100369819D01*
X125829887Y-100369819D02*
X125734649Y-100369819D01*
X125734649Y-100369819D02*
X125591792Y-100322200D01*
X125591792Y-100322200D02*
X125544173Y-100274580D01*
X125544173Y-100274580D02*
X125544173Y-99941247D01*
X125544173Y-99941247D02*
X125734649Y-99941247D01*
X124544173Y-100369819D02*
X124877506Y-99893628D01*
X125115601Y-100369819D02*
X125115601Y-99369819D01*
X125115601Y-99369819D02*
X124734649Y-99369819D01*
X124734649Y-99369819D02*
X124639411Y-99417438D01*
X124639411Y-99417438D02*
X124591792Y-99465057D01*
X124591792Y-99465057D02*
X124544173Y-99560295D01*
X124544173Y-99560295D02*
X124544173Y-99703152D01*
X124544173Y-99703152D02*
X124591792Y-99798390D01*
X124591792Y-99798390D02*
X124639411Y-99846009D01*
X124639411Y-99846009D02*
X124734649Y-99893628D01*
X124734649Y-99893628D02*
X125115601Y-99893628D01*
X124163220Y-100084104D02*
X123687030Y-100084104D01*
X124258458Y-100369819D02*
X123925125Y-99369819D01*
X123925125Y-99369819D02*
X123591792Y-100369819D01*
X123258458Y-100369819D02*
X123258458Y-99369819D01*
X123258458Y-99369819D02*
X122925125Y-100084104D01*
X122925125Y-100084104D02*
X122591792Y-99369819D01*
X122591792Y-99369819D02*
X122591792Y-100369819D01*
X122115601Y-100369819D02*
X122115601Y-99369819D01*
X122115601Y-99369819D02*
X121782268Y-100084104D01*
X121782268Y-100084104D02*
X121448935Y-99369819D01*
X121448935Y-99369819D02*
X121448935Y-100369819D01*
X120972744Y-100369819D02*
X120972744Y-99369819D01*
X120496554Y-100369819D02*
X120496554Y-99369819D01*
X120496554Y-99369819D02*
X119925126Y-100369819D01*
X119925126Y-100369819D02*
X119925126Y-99369819D01*
X118925126Y-99417438D02*
X119020364Y-99369819D01*
X119020364Y-99369819D02*
X119163221Y-99369819D01*
X119163221Y-99369819D02*
X119306078Y-99417438D01*
X119306078Y-99417438D02*
X119401316Y-99512676D01*
X119401316Y-99512676D02*
X119448935Y-99607914D01*
X119448935Y-99607914D02*
X119496554Y-99798390D01*
X119496554Y-99798390D02*
X119496554Y-99941247D01*
X119496554Y-99941247D02*
X119448935Y-100131723D01*
X119448935Y-100131723D02*
X119401316Y-100226961D01*
X119401316Y-100226961D02*
X119306078Y-100322200D01*
X119306078Y-100322200D02*
X119163221Y-100369819D01*
X119163221Y-100369819D02*
X119067983Y-100369819D01*
X119067983Y-100369819D02*
X118925126Y-100322200D01*
X118925126Y-100322200D02*
X118877507Y-100274580D01*
X118877507Y-100274580D02*
X118877507Y-99941247D01*
X118877507Y-99941247D02*
X119067983Y-99941247D01*
X177783333Y-102019819D02*
X177783333Y-102734104D01*
X177783333Y-102734104D02*
X177830952Y-102876961D01*
X177830952Y-102876961D02*
X177926190Y-102972200D01*
X177926190Y-102972200D02*
X178069047Y-103019819D01*
X178069047Y-103019819D02*
X178164285Y-103019819D01*
X176783333Y-103019819D02*
X177354761Y-103019819D01*
X177069047Y-103019819D02*
X177069047Y-102019819D01*
X177069047Y-102019819D02*
X177164285Y-102162676D01*
X177164285Y-102162676D02*
X177259523Y-102257914D01*
X177259523Y-102257914D02*
X177354761Y-102305533D01*
X176785713Y-107819819D02*
X176785713Y-106819819D01*
X176785713Y-106819819D02*
X176404761Y-106819819D01*
X176404761Y-106819819D02*
X176309523Y-106867438D01*
X176309523Y-106867438D02*
X176261904Y-106915057D01*
X176261904Y-106915057D02*
X176214285Y-107010295D01*
X176214285Y-107010295D02*
X176214285Y-107153152D01*
X176214285Y-107153152D02*
X176261904Y-107248390D01*
X176261904Y-107248390D02*
X176309523Y-107296009D01*
X176309523Y-107296009D02*
X176404761Y-107343628D01*
X176404761Y-107343628D02*
X176785713Y-107343628D01*
X175214285Y-107819819D02*
X175547618Y-107343628D01*
X175785713Y-107819819D02*
X175785713Y-106819819D01*
X175785713Y-106819819D02*
X175404761Y-106819819D01*
X175404761Y-106819819D02*
X175309523Y-106867438D01*
X175309523Y-106867438D02*
X175261904Y-106915057D01*
X175261904Y-106915057D02*
X175214285Y-107010295D01*
X175214285Y-107010295D02*
X175214285Y-107153152D01*
X175214285Y-107153152D02*
X175261904Y-107248390D01*
X175261904Y-107248390D02*
X175309523Y-107296009D01*
X175309523Y-107296009D02*
X175404761Y-107343628D01*
X175404761Y-107343628D02*
X175785713Y-107343628D01*
X174595237Y-106819819D02*
X174404761Y-106819819D01*
X174404761Y-106819819D02*
X174309523Y-106867438D01*
X174309523Y-106867438D02*
X174214285Y-106962676D01*
X174214285Y-106962676D02*
X174166666Y-107153152D01*
X174166666Y-107153152D02*
X174166666Y-107486485D01*
X174166666Y-107486485D02*
X174214285Y-107676961D01*
X174214285Y-107676961D02*
X174309523Y-107772200D01*
X174309523Y-107772200D02*
X174404761Y-107819819D01*
X174404761Y-107819819D02*
X174595237Y-107819819D01*
X174595237Y-107819819D02*
X174690475Y-107772200D01*
X174690475Y-107772200D02*
X174785713Y-107676961D01*
X174785713Y-107676961D02*
X174833332Y-107486485D01*
X174833332Y-107486485D02*
X174833332Y-107153152D01*
X174833332Y-107153152D02*
X174785713Y-106962676D01*
X174785713Y-106962676D02*
X174690475Y-106867438D01*
X174690475Y-106867438D02*
X174595237Y-106819819D01*
X173214285Y-106867438D02*
X173309523Y-106819819D01*
X173309523Y-106819819D02*
X173452380Y-106819819D01*
X173452380Y-106819819D02*
X173595237Y-106867438D01*
X173595237Y-106867438D02*
X173690475Y-106962676D01*
X173690475Y-106962676D02*
X173738094Y-107057914D01*
X173738094Y-107057914D02*
X173785713Y-107248390D01*
X173785713Y-107248390D02*
X173785713Y-107391247D01*
X173785713Y-107391247D02*
X173738094Y-107581723D01*
X173738094Y-107581723D02*
X173690475Y-107676961D01*
X173690475Y-107676961D02*
X173595237Y-107772200D01*
X173595237Y-107772200D02*
X173452380Y-107819819D01*
X173452380Y-107819819D02*
X173357142Y-107819819D01*
X173357142Y-107819819D02*
X173214285Y-107772200D01*
X173214285Y-107772200D02*
X173166666Y-107724580D01*
X173166666Y-107724580D02*
X173166666Y-107391247D01*
X173166666Y-107391247D02*
X173357142Y-107391247D01*
X164940476Y-87181009D02*
X165273809Y-87181009D01*
X165273809Y-87704819D02*
X165273809Y-86704819D01*
X165273809Y-86704819D02*
X164797619Y-86704819D01*
X163940476Y-87704819D02*
X164416666Y-87704819D01*
X164416666Y-87704819D02*
X164416666Y-86704819D01*
X163654761Y-87419104D02*
X163178571Y-87419104D01*
X163749999Y-87704819D02*
X163416666Y-86704819D01*
X163416666Y-86704819D02*
X163083333Y-87704819D01*
X162797618Y-87657200D02*
X162654761Y-87704819D01*
X162654761Y-87704819D02*
X162416666Y-87704819D01*
X162416666Y-87704819D02*
X162321428Y-87657200D01*
X162321428Y-87657200D02*
X162273809Y-87609580D01*
X162273809Y-87609580D02*
X162226190Y-87514342D01*
X162226190Y-87514342D02*
X162226190Y-87419104D01*
X162226190Y-87419104D02*
X162273809Y-87323866D01*
X162273809Y-87323866D02*
X162321428Y-87276247D01*
X162321428Y-87276247D02*
X162416666Y-87228628D01*
X162416666Y-87228628D02*
X162607142Y-87181009D01*
X162607142Y-87181009D02*
X162702380Y-87133390D01*
X162702380Y-87133390D02*
X162749999Y-87085771D01*
X162749999Y-87085771D02*
X162797618Y-86990533D01*
X162797618Y-86990533D02*
X162797618Y-86895295D01*
X162797618Y-86895295D02*
X162749999Y-86800057D01*
X162749999Y-86800057D02*
X162702380Y-86752438D01*
X162702380Y-86752438D02*
X162607142Y-86704819D01*
X162607142Y-86704819D02*
X162369047Y-86704819D01*
X162369047Y-86704819D02*
X162226190Y-86752438D01*
X161797618Y-87704819D02*
X161797618Y-86704819D01*
X161797618Y-87181009D02*
X161226190Y-87181009D01*
X161226190Y-87704819D02*
X161226190Y-86704819D01*
X124233333Y-85954819D02*
X124233333Y-86669104D01*
X124233333Y-86669104D02*
X124280952Y-86811961D01*
X124280952Y-86811961D02*
X124376190Y-86907200D01*
X124376190Y-86907200D02*
X124519047Y-86954819D01*
X124519047Y-86954819D02*
X124614285Y-86954819D01*
X123852380Y-85954819D02*
X123233333Y-85954819D01*
X123233333Y-85954819D02*
X123566666Y-86335771D01*
X123566666Y-86335771D02*
X123423809Y-86335771D01*
X123423809Y-86335771D02*
X123328571Y-86383390D01*
X123328571Y-86383390D02*
X123280952Y-86431009D01*
X123280952Y-86431009D02*
X123233333Y-86526247D01*
X123233333Y-86526247D02*
X123233333Y-86764342D01*
X123233333Y-86764342D02*
X123280952Y-86859580D01*
X123280952Y-86859580D02*
X123328571Y-86907200D01*
X123328571Y-86907200D02*
X123423809Y-86954819D01*
X123423809Y-86954819D02*
X123709523Y-86954819D01*
X123709523Y-86954819D02*
X123804761Y-86907200D01*
X123804761Y-86907200D02*
X123852380Y-86859580D01*
X121595237Y-92954819D02*
X121595237Y-93764342D01*
X121595237Y-93764342D02*
X121547618Y-93859580D01*
X121547618Y-93859580D02*
X121499999Y-93907200D01*
X121499999Y-93907200D02*
X121404761Y-93954819D01*
X121404761Y-93954819D02*
X121214285Y-93954819D01*
X121214285Y-93954819D02*
X121119047Y-93907200D01*
X121119047Y-93907200D02*
X121071428Y-93859580D01*
X121071428Y-93859580D02*
X121023809Y-93764342D01*
X121023809Y-93764342D02*
X121023809Y-92954819D01*
X120595237Y-93669104D02*
X120119047Y-93669104D01*
X120690475Y-93954819D02*
X120357142Y-92954819D01*
X120357142Y-92954819D02*
X120023809Y-93954819D01*
X119119047Y-93954819D02*
X119452380Y-93478628D01*
X119690475Y-93954819D02*
X119690475Y-92954819D01*
X119690475Y-92954819D02*
X119309523Y-92954819D01*
X119309523Y-92954819D02*
X119214285Y-93002438D01*
X119214285Y-93002438D02*
X119166666Y-93050057D01*
X119166666Y-93050057D02*
X119119047Y-93145295D01*
X119119047Y-93145295D02*
X119119047Y-93288152D01*
X119119047Y-93288152D02*
X119166666Y-93383390D01*
X119166666Y-93383390D02*
X119214285Y-93431009D01*
X119214285Y-93431009D02*
X119309523Y-93478628D01*
X119309523Y-93478628D02*
X119690475Y-93478628D01*
X118833332Y-92954819D02*
X118261904Y-92954819D01*
X118547618Y-93954819D02*
X118547618Y-92954819D01*
X131083333Y-89904819D02*
X131083333Y-90619104D01*
X131083333Y-90619104D02*
X131130952Y-90761961D01*
X131130952Y-90761961D02*
X131226190Y-90857200D01*
X131226190Y-90857200D02*
X131369047Y-90904819D01*
X131369047Y-90904819D02*
X131464285Y-90904819D01*
X130130952Y-89904819D02*
X130607142Y-89904819D01*
X130607142Y-89904819D02*
X130654761Y-90381009D01*
X130654761Y-90381009D02*
X130607142Y-90333390D01*
X130607142Y-90333390D02*
X130511904Y-90285771D01*
X130511904Y-90285771D02*
X130273809Y-90285771D01*
X130273809Y-90285771D02*
X130178571Y-90333390D01*
X130178571Y-90333390D02*
X130130952Y-90381009D01*
X130130952Y-90381009D02*
X130083333Y-90476247D01*
X130083333Y-90476247D02*
X130083333Y-90714342D01*
X130083333Y-90714342D02*
X130130952Y-90809580D01*
X130130952Y-90809580D02*
X130178571Y-90857200D01*
X130178571Y-90857200D02*
X130273809Y-90904819D01*
X130273809Y-90904819D02*
X130511904Y-90904819D01*
X130511904Y-90904819D02*
X130607142Y-90857200D01*
X130607142Y-90857200D02*
X130654761Y-90809580D01*
X128023809Y-93404819D02*
X128357142Y-92928628D01*
X128595237Y-93404819D02*
X128595237Y-92404819D01*
X128595237Y-92404819D02*
X128214285Y-92404819D01*
X128214285Y-92404819D02*
X128119047Y-92452438D01*
X128119047Y-92452438D02*
X128071428Y-92500057D01*
X128071428Y-92500057D02*
X128023809Y-92595295D01*
X128023809Y-92595295D02*
X128023809Y-92738152D01*
X128023809Y-92738152D02*
X128071428Y-92833390D01*
X128071428Y-92833390D02*
X128119047Y-92881009D01*
X128119047Y-92881009D02*
X128214285Y-92928628D01*
X128214285Y-92928628D02*
X128595237Y-92928628D01*
X127690475Y-92404819D02*
X127023809Y-93404819D01*
X127023809Y-92404819D02*
X127690475Y-93404819D01*
X126880952Y-93500057D02*
X126119047Y-93500057D01*
X125880951Y-92881009D02*
X125547618Y-92881009D01*
X125404761Y-93404819D02*
X125880951Y-93404819D01*
X125880951Y-93404819D02*
X125880951Y-92404819D01*
X125880951Y-92404819D02*
X125404761Y-92404819D01*
X124976189Y-93404819D02*
X124976189Y-92404819D01*
X124976189Y-92404819D02*
X124404761Y-93404819D01*
X124404761Y-93404819D02*
X124404761Y-92404819D01*
X177983333Y-91819819D02*
X177983333Y-92534104D01*
X177983333Y-92534104D02*
X178030952Y-92676961D01*
X178030952Y-92676961D02*
X178126190Y-92772200D01*
X178126190Y-92772200D02*
X178269047Y-92819819D01*
X178269047Y-92819819D02*
X178364285Y-92819819D01*
X177554761Y-91915057D02*
X177507142Y-91867438D01*
X177507142Y-91867438D02*
X177411904Y-91819819D01*
X177411904Y-91819819D02*
X177173809Y-91819819D01*
X177173809Y-91819819D02*
X177078571Y-91867438D01*
X177078571Y-91867438D02*
X177030952Y-91915057D01*
X177030952Y-91915057D02*
X176983333Y-92010295D01*
X176983333Y-92010295D02*
X176983333Y-92105533D01*
X176983333Y-92105533D02*
X177030952Y-92248390D01*
X177030952Y-92248390D02*
X177602380Y-92819819D01*
X177602380Y-92819819D02*
X176983333Y-92819819D01*
X177238094Y-96819819D02*
X177238094Y-95819819D01*
X177238094Y-95819819D02*
X176999999Y-95819819D01*
X176999999Y-95819819D02*
X176857142Y-95867438D01*
X176857142Y-95867438D02*
X176761904Y-95962676D01*
X176761904Y-95962676D02*
X176714285Y-96057914D01*
X176714285Y-96057914D02*
X176666666Y-96248390D01*
X176666666Y-96248390D02*
X176666666Y-96391247D01*
X176666666Y-96391247D02*
X176714285Y-96581723D01*
X176714285Y-96581723D02*
X176761904Y-96676961D01*
X176761904Y-96676961D02*
X176857142Y-96772200D01*
X176857142Y-96772200D02*
X176999999Y-96819819D01*
X176999999Y-96819819D02*
X177238094Y-96819819D01*
X176238094Y-96296009D02*
X175904761Y-96296009D01*
X175761904Y-96819819D02*
X176238094Y-96819819D01*
X176238094Y-96819819D02*
X176238094Y-95819819D01*
X176238094Y-95819819D02*
X175761904Y-95819819D01*
X174999999Y-96296009D02*
X174857142Y-96343628D01*
X174857142Y-96343628D02*
X174809523Y-96391247D01*
X174809523Y-96391247D02*
X174761904Y-96486485D01*
X174761904Y-96486485D02*
X174761904Y-96629342D01*
X174761904Y-96629342D02*
X174809523Y-96724580D01*
X174809523Y-96724580D02*
X174857142Y-96772200D01*
X174857142Y-96772200D02*
X174952380Y-96819819D01*
X174952380Y-96819819D02*
X175333332Y-96819819D01*
X175333332Y-96819819D02*
X175333332Y-95819819D01*
X175333332Y-95819819D02*
X174999999Y-95819819D01*
X174999999Y-95819819D02*
X174904761Y-95867438D01*
X174904761Y-95867438D02*
X174857142Y-95915057D01*
X174857142Y-95915057D02*
X174809523Y-96010295D01*
X174809523Y-96010295D02*
X174809523Y-96105533D01*
X174809523Y-96105533D02*
X174857142Y-96200771D01*
X174857142Y-96200771D02*
X174904761Y-96248390D01*
X174904761Y-96248390D02*
X174999999Y-96296009D01*
X174999999Y-96296009D02*
X175333332Y-96296009D01*
X174333332Y-95819819D02*
X174333332Y-96629342D01*
X174333332Y-96629342D02*
X174285713Y-96724580D01*
X174285713Y-96724580D02*
X174238094Y-96772200D01*
X174238094Y-96772200D02*
X174142856Y-96819819D01*
X174142856Y-96819819D02*
X173952380Y-96819819D01*
X173952380Y-96819819D02*
X173857142Y-96772200D01*
X173857142Y-96772200D02*
X173809523Y-96724580D01*
X173809523Y-96724580D02*
X173761904Y-96629342D01*
X173761904Y-96629342D02*
X173761904Y-95819819D01*
X172761904Y-95867438D02*
X172857142Y-95819819D01*
X172857142Y-95819819D02*
X172999999Y-95819819D01*
X172999999Y-95819819D02*
X173142856Y-95867438D01*
X173142856Y-95867438D02*
X173238094Y-95962676D01*
X173238094Y-95962676D02*
X173285713Y-96057914D01*
X173285713Y-96057914D02*
X173333332Y-96248390D01*
X173333332Y-96248390D02*
X173333332Y-96391247D01*
X173333332Y-96391247D02*
X173285713Y-96581723D01*
X173285713Y-96581723D02*
X173238094Y-96676961D01*
X173238094Y-96676961D02*
X173142856Y-96772200D01*
X173142856Y-96772200D02*
X172999999Y-96819819D01*
X172999999Y-96819819D02*
X172904761Y-96819819D01*
X172904761Y-96819819D02*
X172761904Y-96772200D01*
X172761904Y-96772200D02*
X172714285Y-96724580D01*
X172714285Y-96724580D02*
X172714285Y-96391247D01*
X172714285Y-96391247D02*
X172904761Y-96391247D01*
X174452381Y-87704819D02*
X174785714Y-87228628D01*
X175023809Y-87704819D02*
X175023809Y-86704819D01*
X175023809Y-86704819D02*
X174642857Y-86704819D01*
X174642857Y-86704819D02*
X174547619Y-86752438D01*
X174547619Y-86752438D02*
X174500000Y-86800057D01*
X174500000Y-86800057D02*
X174452381Y-86895295D01*
X174452381Y-86895295D02*
X174452381Y-87038152D01*
X174452381Y-87038152D02*
X174500000Y-87133390D01*
X174500000Y-87133390D02*
X174547619Y-87181009D01*
X174547619Y-87181009D02*
X174642857Y-87228628D01*
X174642857Y-87228628D02*
X175023809Y-87228628D01*
X174023809Y-87181009D02*
X173690476Y-87181009D01*
X173547619Y-87704819D02*
X174023809Y-87704819D01*
X174023809Y-87704819D02*
X174023809Y-86704819D01*
X174023809Y-86704819D02*
X173547619Y-86704819D01*
X173166666Y-87657200D02*
X173023809Y-87704819D01*
X173023809Y-87704819D02*
X172785714Y-87704819D01*
X172785714Y-87704819D02*
X172690476Y-87657200D01*
X172690476Y-87657200D02*
X172642857Y-87609580D01*
X172642857Y-87609580D02*
X172595238Y-87514342D01*
X172595238Y-87514342D02*
X172595238Y-87419104D01*
X172595238Y-87419104D02*
X172642857Y-87323866D01*
X172642857Y-87323866D02*
X172690476Y-87276247D01*
X172690476Y-87276247D02*
X172785714Y-87228628D01*
X172785714Y-87228628D02*
X172976190Y-87181009D01*
X172976190Y-87181009D02*
X173071428Y-87133390D01*
X173071428Y-87133390D02*
X173119047Y-87085771D01*
X173119047Y-87085771D02*
X173166666Y-86990533D01*
X173166666Y-86990533D02*
X173166666Y-86895295D01*
X173166666Y-86895295D02*
X173119047Y-86800057D01*
X173119047Y-86800057D02*
X173071428Y-86752438D01*
X173071428Y-86752438D02*
X172976190Y-86704819D01*
X172976190Y-86704819D02*
X172738095Y-86704819D01*
X172738095Y-86704819D02*
X172595238Y-86752438D01*
X172166666Y-87181009D02*
X171833333Y-87181009D01*
X171690476Y-87704819D02*
X172166666Y-87704819D01*
X172166666Y-87704819D02*
X172166666Y-86704819D01*
X172166666Y-86704819D02*
X171690476Y-86704819D01*
X171404761Y-86704819D02*
X170833333Y-86704819D01*
X171119047Y-87704819D02*
X171119047Y-86704819D01*
X127133333Y-79054819D02*
X127133333Y-79769104D01*
X127133333Y-79769104D02*
X127180952Y-79911961D01*
X127180952Y-79911961D02*
X127276190Y-80007200D01*
X127276190Y-80007200D02*
X127419047Y-80054819D01*
X127419047Y-80054819D02*
X127514285Y-80054819D01*
X126228571Y-79388152D02*
X126228571Y-80054819D01*
X126466666Y-79007200D02*
X126704761Y-79721485D01*
X126704761Y-79721485D02*
X126085714Y-79721485D01*
X123809523Y-84654819D02*
X123809523Y-83654819D01*
X123809523Y-83654819D02*
X123428571Y-83654819D01*
X123428571Y-83654819D02*
X123333333Y-83702438D01*
X123333333Y-83702438D02*
X123285714Y-83750057D01*
X123285714Y-83750057D02*
X123238095Y-83845295D01*
X123238095Y-83845295D02*
X123238095Y-83988152D01*
X123238095Y-83988152D02*
X123285714Y-84083390D01*
X123285714Y-84083390D02*
X123333333Y-84131009D01*
X123333333Y-84131009D02*
X123428571Y-84178628D01*
X123428571Y-84178628D02*
X123809523Y-84178628D01*
X122619047Y-83654819D02*
X122428571Y-83654819D01*
X122428571Y-83654819D02*
X122333333Y-83702438D01*
X122333333Y-83702438D02*
X122238095Y-83797676D01*
X122238095Y-83797676D02*
X122190476Y-83988152D01*
X122190476Y-83988152D02*
X122190476Y-84321485D01*
X122190476Y-84321485D02*
X122238095Y-84511961D01*
X122238095Y-84511961D02*
X122333333Y-84607200D01*
X122333333Y-84607200D02*
X122428571Y-84654819D01*
X122428571Y-84654819D02*
X122619047Y-84654819D01*
X122619047Y-84654819D02*
X122714285Y-84607200D01*
X122714285Y-84607200D02*
X122809523Y-84511961D01*
X122809523Y-84511961D02*
X122857142Y-84321485D01*
X122857142Y-84321485D02*
X122857142Y-83988152D01*
X122857142Y-83988152D02*
X122809523Y-83797676D01*
X122809523Y-83797676D02*
X122714285Y-83702438D01*
X122714285Y-83702438D02*
X122619047Y-83654819D01*
X121857142Y-83654819D02*
X121619047Y-84654819D01*
X121619047Y-84654819D02*
X121428571Y-83940533D01*
X121428571Y-83940533D02*
X121238095Y-84654819D01*
X121238095Y-84654819D02*
X121000000Y-83654819D01*
X120619047Y-84131009D02*
X120285714Y-84131009D01*
X120142857Y-84654819D02*
X120619047Y-84654819D01*
X120619047Y-84654819D02*
X120619047Y-83654819D01*
X120619047Y-83654819D02*
X120142857Y-83654819D01*
X119142857Y-84654819D02*
X119476190Y-84178628D01*
X119714285Y-84654819D02*
X119714285Y-83654819D01*
X119714285Y-83654819D02*
X119333333Y-83654819D01*
X119333333Y-83654819D02*
X119238095Y-83702438D01*
X119238095Y-83702438D02*
X119190476Y-83750057D01*
X119190476Y-83750057D02*
X119142857Y-83845295D01*
X119142857Y-83845295D02*
X119142857Y-83988152D01*
X119142857Y-83988152D02*
X119190476Y-84083390D01*
X119190476Y-84083390D02*
X119238095Y-84131009D01*
X119238095Y-84131009D02*
X119333333Y-84178628D01*
X119333333Y-84178628D02*
X119714285Y-84178628D01*
D11*
%TO.C,J1*%
X176330000Y-106235000D02*
X173670000Y-106235000D01*
X176330000Y-101095000D02*
X176330000Y-106235000D01*
X176330000Y-101095000D02*
X173670000Y-101095000D01*
X176330000Y-99825000D02*
X176330000Y-98495000D01*
X176330000Y-98495000D02*
X175000000Y-98495000D01*
X173670000Y-101095000D02*
X173670000Y-106235000D01*
%TO.C,SW_FLASH1*%
X162526750Y-77950000D02*
X164026750Y-77950000D01*
X166526750Y-79200000D02*
X166526750Y-83700000D01*
X160026750Y-83700000D02*
X160026750Y-79200000D01*
X164026750Y-84950000D02*
X162526750Y-84950000D01*
%TO.C,J3*%
X117390000Y-85890000D02*
X118640000Y-85890000D01*
X122410000Y-86190000D02*
X122410000Y-92310000D01*
X120300000Y-86190000D02*
X120300000Y-86800000D01*
X119000000Y-86190000D02*
X119000000Y-86800000D01*
X117690000Y-86190000D02*
X122410000Y-86190000D01*
X121800000Y-86800000D02*
X121800000Y-91700000D01*
X118300000Y-86800000D02*
X121800000Y-86800000D01*
X117390000Y-87140000D02*
X117390000Y-85890000D01*
X117490000Y-87650000D02*
X117690000Y-87650000D01*
X117690000Y-87950000D02*
X117490000Y-87950000D01*
X117590000Y-87950000D02*
X117590000Y-87650000D01*
X117490000Y-87950000D02*
X117490000Y-87650000D01*
X118300000Y-88750000D02*
X118300000Y-86800000D01*
X117690000Y-88750000D02*
X118300000Y-88750000D01*
X121800000Y-89150000D02*
X121300000Y-89150000D01*
X121300000Y-89150000D02*
X121300000Y-89350000D01*
X121800000Y-89250000D02*
X121300000Y-89250000D01*
X121300000Y-89350000D02*
X121800000Y-89350000D01*
X118300000Y-89750000D02*
X117690000Y-89750000D01*
X121800000Y-91700000D02*
X118300000Y-91700000D01*
X118300000Y-91700000D02*
X118300000Y-89750000D01*
X122410000Y-92310000D02*
X117690000Y-92310000D01*
X120300000Y-92310000D02*
X120300000Y-91700000D01*
X119000000Y-92310000D02*
X119000000Y-91700000D01*
X117690000Y-92310000D02*
X117690000Y-86190000D01*
%TO.C,J5*%
X129130000Y-88920000D02*
X129130000Y-91580000D01*
X126530000Y-88920000D02*
X129130000Y-88920000D01*
X126530000Y-88920000D02*
X126530000Y-91580000D01*
X125260000Y-88920000D02*
X123930000Y-88920000D01*
X123930000Y-88920000D02*
X123930000Y-90250000D01*
X126530000Y-91580000D02*
X129130000Y-91580000D01*
%TO.C,J2*%
X176330000Y-94995000D02*
X173670000Y-94995000D01*
X176330000Y-92395000D02*
X176330000Y-94995000D01*
X176330000Y-92395000D02*
X173670000Y-92395000D01*
X176330000Y-91125000D02*
X176330000Y-89795000D01*
X176330000Y-89795000D02*
X175000000Y-89795000D01*
X173670000Y-92395000D02*
X173670000Y-94995000D01*
%TO.C,SW_RST1*%
X173750000Y-85000000D02*
X172250000Y-85000000D01*
X169750000Y-83750000D02*
X169750000Y-79250000D01*
X176250000Y-79250000D02*
X176250000Y-83750000D01*
X172250000Y-78000000D02*
X173750000Y-78000000D01*
%TO.C,J4*%
X125600000Y-76750000D02*
X125600000Y-78000000D01*
X125310000Y-83010000D02*
X117690000Y-83010000D01*
X125310000Y-77040000D02*
X125310000Y-83010000D01*
X125300000Y-79300000D02*
X124550000Y-79300000D01*
X125300000Y-77800000D02*
X123500000Y-77800000D01*
X125300000Y-77050000D02*
X125300000Y-77800000D01*
X124550000Y-82250000D02*
X121500000Y-82250000D01*
X124550000Y-79300000D02*
X124550000Y-82250000D01*
X124350000Y-76750000D02*
X125600000Y-76750000D01*
X123500000Y-77800000D02*
X123500000Y-77050000D01*
X123500000Y-77050000D02*
X125300000Y-77050000D01*
X122000000Y-77800000D02*
X121000000Y-77800000D01*
X122000000Y-77050000D02*
X122000000Y-77800000D01*
X121000000Y-77800000D02*
X121000000Y-77050000D01*
X121000000Y-77050000D02*
X122000000Y-77050000D01*
X119500000Y-77800000D02*
X117700000Y-77800000D01*
X119500000Y-77050000D02*
X119500000Y-77800000D01*
X118450000Y-82250000D02*
X121500000Y-82250000D01*
X118450000Y-79300000D02*
X118450000Y-82250000D01*
X117700000Y-79300000D02*
X118450000Y-79300000D01*
X117700000Y-77800000D02*
X117700000Y-77050000D01*
X117700000Y-77050000D02*
X119500000Y-77050000D01*
X117690000Y-83010000D02*
X117690000Y-77040000D01*
X117690000Y-77040000D02*
X125310000Y-77040000D01*
%TD*%
M02*
