%TF.GenerationSoftware,KiCad,Pcbnew,7.0.10*%
%TF.CreationDate,2024-04-03T10:39:24+02:00*%
%TF.ProjectId,Humi,48756d69-2e6b-4696-9361-645f70636258,rev?*%
%TF.SameCoordinates,Original*%
%TF.FileFunction,Soldermask,Top*%
%TF.FilePolarity,Negative*%
%FSLAX46Y46*%
G04 Gerber Fmt 4.6, Leading zero omitted, Abs format (unit mm)*
G04 Created by KiCad (PCBNEW 7.0.10) date 2024-04-03 10:39:24*
%MOMM*%
%LPD*%
G01*
G04 APERTURE LIST*
G04 Aperture macros list*
%AMRoundRect*
0 Rectangle with rounded corners*
0 $1 Rounding radius*
0 $2 $3 $4 $5 $6 $7 $8 $9 X,Y pos of 4 corners*
0 Add a 4 corners polygon primitive as box body*
4,1,4,$2,$3,$4,$5,$6,$7,$8,$9,$2,$3,0*
0 Add four circle primitives for the rounded corners*
1,1,$1+$1,$2,$3*
1,1,$1+$1,$4,$5*
1,1,$1+$1,$6,$7*
1,1,$1+$1,$8,$9*
0 Add four rect primitives between the rounded corners*
20,1,$1+$1,$2,$3,$4,$5,0*
20,1,$1+$1,$4,$5,$6,$7,0*
20,1,$1+$1,$6,$7,$8,$9,0*
20,1,$1+$1,$8,$9,$2,$3,0*%
G04 Aperture macros list end*
%ADD10C,5.400000*%
%ADD11RoundRect,0.250000X0.400000X0.625000X-0.400000X0.625000X-0.400000X-0.625000X0.400000X-0.625000X0*%
%ADD12RoundRect,0.250000X-0.400000X-0.625000X0.400000X-0.625000X0.400000X0.625000X-0.400000X0.625000X0*%
%ADD13RoundRect,0.250000X0.337500X0.475000X-0.337500X0.475000X-0.337500X-0.475000X0.337500X-0.475000X0*%
%ADD14RoundRect,0.250000X-0.375000X-0.625000X0.375000X-0.625000X0.375000X0.625000X-0.375000X0.625000X0*%
%ADD15RoundRect,0.250000X-0.337500X-0.475000X0.337500X-0.475000X0.337500X0.475000X-0.337500X0.475000X0*%
%ADD16RoundRect,0.250000X-0.550000X1.050000X-0.550000X-1.050000X0.550000X-1.050000X0.550000X1.050000X0*%
%ADD17R,5.588000X1.905000*%
%ADD18RoundRect,0.150000X-0.150000X0.512500X-0.150000X-0.512500X0.150000X-0.512500X0.150000X0.512500X0*%
%ADD19R,2.500000X1.000000*%
%ADD20R,1.000000X1.800000*%
%ADD21R,1.700000X1.700000*%
%ADD22O,1.700000X1.700000*%
%ADD23C,2.000000*%
%ADD24RoundRect,0.250000X-0.625000X0.350000X-0.625000X-0.350000X0.625000X-0.350000X0.625000X0.350000X0*%
%ADD25O,1.750000X1.200000*%
%ADD26RoundRect,0.250000X0.600000X0.750000X-0.600000X0.750000X-0.600000X-0.750000X0.600000X-0.750000X0*%
%ADD27O,1.700000X2.000000*%
G04 APERTURE END LIST*
D10*
%TO.C,H2*%
X124000000Y-112400000D03*
%TD*%
%TO.C,H1*%
X171000000Y-112400000D03*
%TD*%
D11*
%TO.C,R3*%
X135800000Y-101900000D03*
X132700000Y-101900000D03*
%TD*%
D12*
%TO.C,R4*%
X132700000Y-106400000D03*
X135800000Y-106400000D03*
%TD*%
D13*
%TO.C,C2*%
X146881250Y-90081250D03*
X144806250Y-90081250D03*
%TD*%
D14*
%TO.C,F2*%
X132656250Y-83106250D03*
X135456250Y-83106250D03*
%TD*%
D15*
%TO.C,C3*%
X171962500Y-82000000D03*
X174037500Y-82000000D03*
%TD*%
%TO.C,C4*%
X162462500Y-82000000D03*
X164537500Y-82000000D03*
%TD*%
D13*
%TO.C,C7*%
X146931250Y-81506250D03*
X144856250Y-81506250D03*
%TD*%
D12*
%TO.C,R6*%
X160700000Y-106400000D03*
X163800000Y-106400000D03*
%TD*%
D16*
%TO.C,C1*%
X140656250Y-83106250D03*
X140656250Y-86706250D03*
%TD*%
D17*
%TO.C,L1*%
X153306250Y-89055750D03*
X153306250Y-84356750D03*
%TD*%
D11*
%TO.C,R5*%
X135800000Y-97400000D03*
X132700000Y-97400000D03*
%TD*%
D13*
%TO.C,C8*%
X146931250Y-79306250D03*
X144856250Y-79306250D03*
%TD*%
D18*
%TO.C,U4*%
X146756250Y-84031250D03*
X145806250Y-84031250D03*
X144856250Y-84031250D03*
X144856250Y-86306250D03*
X145806250Y-86306250D03*
X146756250Y-86306250D03*
%TD*%
D11*
%TO.C,R1*%
X163800000Y-110400000D03*
X160700000Y-110400000D03*
%TD*%
D19*
%TO.C,U1*%
X155850000Y-110650000D03*
X155850000Y-108650000D03*
X155850000Y-106650000D03*
X155850000Y-104650000D03*
X155850000Y-102650000D03*
X155850000Y-100650000D03*
X155850000Y-98650000D03*
X155850000Y-96650000D03*
D20*
X153250000Y-95150000D03*
X151250000Y-95150000D03*
X149250000Y-95150000D03*
X147250000Y-95150000D03*
X145250000Y-95150000D03*
X143250000Y-95150000D03*
D19*
X140650000Y-96650000D03*
X140650000Y-98650000D03*
X140650000Y-100650000D03*
X140650000Y-102650000D03*
X140650000Y-104650000D03*
X140650000Y-106650000D03*
X140650000Y-108650000D03*
X140650000Y-110650000D03*
%TD*%
D21*
%TO.C,J1*%
X175000000Y-99825000D03*
D22*
X175000000Y-102365000D03*
X175000000Y-104905000D03*
%TD*%
D23*
%TO.C,SW_FLASH1*%
X161026750Y-78200000D03*
X161026750Y-84700000D03*
X165526750Y-78200000D03*
X165526750Y-84700000D03*
%TD*%
D24*
%TO.C,J3*%
X119500000Y-88250000D03*
D25*
X119500000Y-90250000D03*
%TD*%
D21*
%TO.C,J5*%
X125260000Y-90250000D03*
D22*
X127800000Y-90250000D03*
%TD*%
D21*
%TO.C,J2*%
X175000000Y-91125000D03*
D22*
X175000000Y-93665000D03*
%TD*%
D23*
%TO.C,SW_RST1*%
X175250000Y-84750000D03*
X175250000Y-78250000D03*
X170750000Y-84750000D03*
X170750000Y-78250000D03*
%TD*%
D26*
%TO.C,J4*%
X122750000Y-79500000D03*
D27*
X120250000Y-79500000D03*
%TD*%
M02*
