%TF.GenerationSoftware,KiCad,Pcbnew,7.0.10*%
%TF.CreationDate,2024-04-03T10:39:23+02:00*%
%TF.ProjectId,Humi,48756d69-2e6b-4696-9361-645f70636258,rev?*%
%TF.SameCoordinates,Original*%
%TF.FileFunction,Copper,L1,Top*%
%TF.FilePolarity,Positive*%
%FSLAX46Y46*%
G04 Gerber Fmt 4.6, Leading zero omitted, Abs format (unit mm)*
G04 Created by KiCad (PCBNEW 7.0.10) date 2024-04-03 10:39:23*
%MOMM*%
%LPD*%
G01*
G04 APERTURE LIST*
G04 Aperture macros list*
%AMRoundRect*
0 Rectangle with rounded corners*
0 $1 Rounding radius*
0 $2 $3 $4 $5 $6 $7 $8 $9 X,Y pos of 4 corners*
0 Add a 4 corners polygon primitive as box body*
4,1,4,$2,$3,$4,$5,$6,$7,$8,$9,$2,$3,0*
0 Add four circle primitives for the rounded corners*
1,1,$1+$1,$2,$3*
1,1,$1+$1,$4,$5*
1,1,$1+$1,$6,$7*
1,1,$1+$1,$8,$9*
0 Add four rect primitives between the rounded corners*
20,1,$1+$1,$2,$3,$4,$5,0*
20,1,$1+$1,$4,$5,$6,$7,0*
20,1,$1+$1,$6,$7,$8,$9,0*
20,1,$1+$1,$8,$9,$2,$3,0*%
G04 Aperture macros list end*
%TA.AperFunction,ComponentPad*%
%ADD10C,5.400000*%
%TD*%
%TA.AperFunction,SMDPad,CuDef*%
%ADD11RoundRect,0.250000X0.400000X0.625000X-0.400000X0.625000X-0.400000X-0.625000X0.400000X-0.625000X0*%
%TD*%
%TA.AperFunction,SMDPad,CuDef*%
%ADD12RoundRect,0.250000X-0.400000X-0.625000X0.400000X-0.625000X0.400000X0.625000X-0.400000X0.625000X0*%
%TD*%
%TA.AperFunction,SMDPad,CuDef*%
%ADD13RoundRect,0.250000X0.337500X0.475000X-0.337500X0.475000X-0.337500X-0.475000X0.337500X-0.475000X0*%
%TD*%
%TA.AperFunction,SMDPad,CuDef*%
%ADD14RoundRect,0.250000X-0.375000X-0.625000X0.375000X-0.625000X0.375000X0.625000X-0.375000X0.625000X0*%
%TD*%
%TA.AperFunction,SMDPad,CuDef*%
%ADD15RoundRect,0.250000X-0.337500X-0.475000X0.337500X-0.475000X0.337500X0.475000X-0.337500X0.475000X0*%
%TD*%
%TA.AperFunction,SMDPad,CuDef*%
%ADD16RoundRect,0.250000X-0.550000X1.050000X-0.550000X-1.050000X0.550000X-1.050000X0.550000X1.050000X0*%
%TD*%
%TA.AperFunction,SMDPad,CuDef*%
%ADD17R,5.588000X1.905000*%
%TD*%
%TA.AperFunction,SMDPad,CuDef*%
%ADD18RoundRect,0.150000X-0.150000X0.512500X-0.150000X-0.512500X0.150000X-0.512500X0.150000X0.512500X0*%
%TD*%
%TA.AperFunction,SMDPad,CuDef*%
%ADD19R,2.500000X1.000000*%
%TD*%
%TA.AperFunction,SMDPad,CuDef*%
%ADD20R,1.000000X1.800000*%
%TD*%
%TA.AperFunction,ComponentPad*%
%ADD21R,1.700000X1.700000*%
%TD*%
%TA.AperFunction,ComponentPad*%
%ADD22O,1.700000X1.700000*%
%TD*%
%TA.AperFunction,ComponentPad*%
%ADD23C,2.000000*%
%TD*%
%TA.AperFunction,ComponentPad*%
%ADD24RoundRect,0.250000X-0.625000X0.350000X-0.625000X-0.350000X0.625000X-0.350000X0.625000X0.350000X0*%
%TD*%
%TA.AperFunction,ComponentPad*%
%ADD25O,1.750000X1.200000*%
%TD*%
%TA.AperFunction,ComponentPad*%
%ADD26RoundRect,0.250000X0.600000X0.750000X-0.600000X0.750000X-0.600000X-0.750000X0.600000X-0.750000X0*%
%TD*%
%TA.AperFunction,ComponentPad*%
%ADD27O,1.700000X2.000000*%
%TD*%
%TA.AperFunction,ViaPad*%
%ADD28C,0.800000*%
%TD*%
%TA.AperFunction,Conductor*%
%ADD29C,0.300000*%
%TD*%
%TA.AperFunction,Conductor*%
%ADD30C,0.500000*%
%TD*%
G04 APERTURE END LIST*
D10*
%TO.P,H2,1,1*%
%TO.N,GND*%
X124000000Y-112400000D03*
%TD*%
%TO.P,H1,1,1*%
%TO.N,GND*%
X171000000Y-112400000D03*
%TD*%
D11*
%TO.P,R3,1*%
%TO.N,GPIO_02*%
X135800000Y-101900000D03*
%TO.P,R3,2*%
%TO.N,+3V3*%
X132700000Y-101900000D03*
%TD*%
D12*
%TO.P,R4,1*%
%TO.N,+3V3*%
X132700000Y-106400000D03*
%TO.P,R4,2*%
%TO.N,FLASH*%
X135800000Y-106400000D03*
%TD*%
D13*
%TO.P,C2,1*%
%TO.N,Net-(U4-BST)*%
X146881250Y-90081250D03*
%TO.P,C2,2*%
%TO.N,Net-(U4-SW)*%
X144806250Y-90081250D03*
%TD*%
D14*
%TO.P,F2,1*%
%TO.N,+12V*%
X132656250Y-83106250D03*
%TO.P,F2,2*%
%TO.N,Net-(U4-EN)*%
X135456250Y-83106250D03*
%TD*%
D15*
%TO.P,C3,1*%
%TO.N,RST*%
X171962500Y-82000000D03*
%TO.P,C3,2*%
%TO.N,GND*%
X174037500Y-82000000D03*
%TD*%
%TO.P,C4,1*%
%TO.N,FLASH*%
X162462500Y-82000000D03*
%TO.P,C4,2*%
%TO.N,GND*%
X164537500Y-82000000D03*
%TD*%
D13*
%TO.P,C7,1*%
%TO.N,+3V3*%
X146931250Y-81506250D03*
%TO.P,C7,2*%
%TO.N,GND*%
X144856250Y-81506250D03*
%TD*%
D12*
%TO.P,R6,1*%
%TO.N,EN*%
X160700000Y-106400000D03*
%TO.P,R6,2*%
%TO.N,+3V3*%
X163800000Y-106400000D03*
%TD*%
D16*
%TO.P,C1,1*%
%TO.N,Net-(U4-EN)*%
X140656250Y-83106250D03*
%TO.P,C1,2*%
%TO.N,GND*%
X140656250Y-86706250D03*
%TD*%
D17*
%TO.P,L1,1,1*%
%TO.N,Net-(U4-SW)*%
X153306250Y-89055750D03*
%TO.P,L1,2,2*%
%TO.N,+3V3*%
X153306250Y-84356750D03*
%TD*%
D11*
%TO.P,R5,1*%
%TO.N,GPIO_15*%
X135800000Y-97400000D03*
%TO.P,R5,2*%
%TO.N,GND*%
X132700000Y-97400000D03*
%TD*%
D13*
%TO.P,C8,1*%
%TO.N,+3V3*%
X146931250Y-79306250D03*
%TO.P,C8,2*%
%TO.N,GND*%
X144856250Y-79306250D03*
%TD*%
D18*
%TO.P,U4,1,FB*%
%TO.N,+3V3*%
X146756250Y-84031250D03*
%TO.P,U4,2,EN*%
%TO.N,Net-(U4-EN)*%
X145806250Y-84031250D03*
%TO.P,U4,3,IN*%
X144856250Y-84031250D03*
%TO.P,U4,4,GND*%
%TO.N,GND*%
X144856250Y-86306250D03*
%TO.P,U4,5,SW*%
%TO.N,Net-(U4-SW)*%
X145806250Y-86306250D03*
%TO.P,U4,6,BST*%
%TO.N,Net-(U4-BST)*%
X146756250Y-86306250D03*
%TD*%
D11*
%TO.P,R1,1*%
%TO.N,+3V3*%
X163800000Y-110400000D03*
%TO.P,R1,2*%
%TO.N,RST*%
X160700000Y-110400000D03*
%TD*%
D19*
%TO.P,U1,1,~{RST}*%
%TO.N,RST*%
X155850000Y-110650000D03*
%TO.P,U1,2,ADC*%
%TO.N,unconnected-(U1-ADC-Pad2)*%
X155850000Y-108650000D03*
%TO.P,U1,3,EN*%
%TO.N,EN*%
X155850000Y-106650000D03*
%TO.P,U1,4,GPIO16*%
%TO.N,unconnected-(U1-GPIO16-Pad4)*%
X155850000Y-104650000D03*
%TO.P,U1,5,GPIO14*%
%TO.N,unconnected-(U1-GPIO14-Pad5)*%
X155850000Y-102650000D03*
%TO.P,U1,6,GPIO12*%
%TO.N,unconnected-(U1-GPIO12-Pad6)*%
X155850000Y-100650000D03*
%TO.P,U1,7,GPIO13*%
%TO.N,unconnected-(U1-GPIO13-Pad7)*%
X155850000Y-98650000D03*
%TO.P,U1,8,VCC*%
%TO.N,+3V3*%
X155850000Y-96650000D03*
D20*
%TO.P,U1,9,CS0*%
%TO.N,unconnected-(U1-CS0-Pad9)*%
X153250000Y-95150000D03*
%TO.P,U1,10,MISO*%
%TO.N,unconnected-(U1-MISO-Pad10)*%
X151250000Y-95150000D03*
%TO.P,U1,11,GPIO9*%
%TO.N,unconnected-(U1-GPIO9-Pad11)*%
X149250000Y-95150000D03*
%TO.P,U1,12,GPIO10*%
%TO.N,unconnected-(U1-GPIO10-Pad12)*%
X147250000Y-95150000D03*
%TO.P,U1,13,MOSI*%
%TO.N,unconnected-(U1-MOSI-Pad13)*%
X145250000Y-95150000D03*
%TO.P,U1,14,SCLK*%
%TO.N,unconnected-(U1-SCLK-Pad14)*%
X143250000Y-95150000D03*
D19*
%TO.P,U1,15,GND*%
%TO.N,GND*%
X140650000Y-96650000D03*
%TO.P,U1,16,GPIO15*%
%TO.N,GPIO_15*%
X140650000Y-98650000D03*
%TO.P,U1,17,GPIO2*%
%TO.N,GPIO_02*%
X140650000Y-100650000D03*
%TO.P,U1,18,GPIO0*%
%TO.N,FLASH*%
X140650000Y-102650000D03*
%TO.P,U1,19,GPIO4*%
%TO.N,unconnected-(U1-GPIO4-Pad19)*%
X140650000Y-104650000D03*
%TO.P,U1,20,GPIO5*%
%TO.N,unconnected-(U1-GPIO5-Pad20)*%
X140650000Y-106650000D03*
%TO.P,U1,21,GPIO3/RXD*%
%TO.N,RX_0*%
X140650000Y-108650000D03*
%TO.P,U1,22,GPIO1/TXD*%
%TO.N,TX_0*%
X140650000Y-110650000D03*
%TD*%
D21*
%TO.P,J1,1,Pin_1*%
%TO.N,GND*%
X175000000Y-99825000D03*
D22*
%TO.P,J1,2,Pin_2*%
%TO.N,RX_0*%
X175000000Y-102365000D03*
%TO.P,J1,3,Pin_3*%
%TO.N,TX_0*%
X175000000Y-104905000D03*
%TD*%
D23*
%TO.P,SW_FLASH1,1,A*%
%TO.N,FLASH*%
X161026750Y-78200000D03*
X161026750Y-84700000D03*
%TO.P,SW_FLASH1,2,B*%
%TO.N,GND*%
X165526750Y-78200000D03*
X165526750Y-84700000D03*
%TD*%
D24*
%TO.P,J3,1,Pin_1*%
%TO.N,TX_0*%
X119500000Y-88250000D03*
D25*
%TO.P,J3,2,Pin_2*%
%TO.N,RX_H*%
X119500000Y-90250000D03*
%TD*%
D21*
%TO.P,J5,1,Pin_1*%
%TO.N,RX_H*%
X125260000Y-90250000D03*
D22*
%TO.P,J5,2,Pin_2*%
%TO.N,RX_0*%
X127800000Y-90250000D03*
%TD*%
D21*
%TO.P,J2,1,Pin_1*%
%TO.N,GND*%
X175000000Y-91125000D03*
D22*
%TO.P,J2,2,Pin_2*%
%TO.N,GPIO_02*%
X175000000Y-93665000D03*
%TD*%
D23*
%TO.P,SW_RST1,1,A*%
%TO.N,GND*%
X175250000Y-84750000D03*
X175250000Y-78250000D03*
%TO.P,SW_RST1,2,B*%
%TO.N,RST*%
X170750000Y-84750000D03*
X170750000Y-78250000D03*
%TD*%
D26*
%TO.P,J4,1,Pin_1*%
%TO.N,GND*%
X122750000Y-79500000D03*
D27*
%TO.P,J4,2,Pin_2*%
%TO.N,+12V*%
X120250000Y-79500000D03*
%TD*%
D28*
%TO.N,GND*%
X143456250Y-81506250D03*
X140656250Y-88606250D03*
X143456250Y-79281250D03*
X142350000Y-97300000D03*
X143856250Y-87706250D03*
X132650000Y-95800000D03*
%TO.N,+3V3*%
X157900000Y-108300000D03*
X157900000Y-96800000D03*
%TD*%
D29*
%TO.N,RST*%
X177700000Y-112000000D02*
X177700000Y-90500000D01*
X166500000Y-117000000D02*
X172700000Y-117000000D01*
X160200000Y-110900000D02*
X160700000Y-110400000D01*
X156100000Y-110400000D02*
X155850000Y-110650000D01*
X175200000Y-88000000D02*
X174000000Y-88000000D01*
X174000000Y-88000000D02*
X170750000Y-84750000D01*
X171962500Y-83537500D02*
X171962500Y-82000000D01*
X177700000Y-90500000D02*
X175200000Y-88000000D01*
X170750000Y-78250000D02*
X170750000Y-84750000D01*
X160700000Y-110400000D02*
X156100000Y-110400000D01*
X160700000Y-110400000D02*
X160700000Y-111200000D01*
X170750000Y-84750000D02*
X171962500Y-83537500D01*
X172700000Y-117000000D02*
X177700000Y-112000000D01*
X160700000Y-111200000D02*
X166500000Y-117000000D01*
D30*
%TO.N,GND*%
X140656250Y-86706250D02*
X140656250Y-88606250D01*
X144856250Y-86306250D02*
X144856250Y-86706250D01*
X165526750Y-84700000D02*
X165526750Y-82989250D01*
X141700000Y-96650000D02*
X142350000Y-97300000D01*
X143481250Y-79306250D02*
X143456250Y-79281250D01*
X144856250Y-86706250D02*
X143856250Y-87706250D01*
X144856250Y-79306250D02*
X143481250Y-79306250D01*
X165526750Y-82989250D02*
X164537500Y-82000000D01*
X144856250Y-78831250D02*
X144856250Y-81506250D01*
X144856250Y-81506250D02*
X143456250Y-81506250D01*
X175250000Y-84750000D02*
X175250000Y-83212500D01*
X140650000Y-96650000D02*
X141700000Y-96650000D01*
X175250000Y-83212500D02*
X174037500Y-82000000D01*
X132700000Y-95850000D02*
X132650000Y-95800000D01*
X132700000Y-97400000D02*
X132700000Y-95850000D01*
D29*
%TO.N,FLASH*%
X145450000Y-102650000D02*
X140650000Y-102650000D01*
X161026750Y-84700000D02*
X162462500Y-83264250D01*
X146300000Y-101800000D02*
X145450000Y-102650000D01*
X157200000Y-101800000D02*
X146300000Y-101800000D01*
X135800000Y-106400000D02*
X139550000Y-102650000D01*
X161026750Y-84700000D02*
X161026750Y-97973250D01*
X161026750Y-97973250D02*
X157200000Y-101800000D01*
X162462500Y-83264250D02*
X162462500Y-82000000D01*
X161026750Y-78200000D02*
X161026750Y-84700000D01*
X139550000Y-102650000D02*
X140650000Y-102650000D01*
D30*
%TO.N,+3V3*%
X152231250Y-84031250D02*
X152306250Y-83956250D01*
X129600000Y-93900000D02*
X130800000Y-92700000D01*
X129600000Y-98800000D02*
X129600000Y-93900000D01*
X156000000Y-96800000D02*
X155850000Y-96650000D01*
X146931250Y-81506250D02*
X146931250Y-83856250D01*
X152731250Y-84031250D02*
X146756250Y-84031250D01*
X146931250Y-83856250D02*
X146756250Y-84031250D01*
X130800000Y-92700000D02*
X158000000Y-92700000D01*
X163800000Y-108300000D02*
X157900000Y-108300000D01*
X132700000Y-101900000D02*
X129600000Y-98800000D01*
X153306250Y-84606250D02*
X156006250Y-84606250D01*
X158000000Y-86000000D02*
X158000000Y-92700000D01*
X146931250Y-78831250D02*
X146931250Y-81506250D01*
X153306250Y-84606250D02*
X152731250Y-84031250D01*
X158000000Y-92700000D02*
X158000000Y-94500000D01*
X156500000Y-96650000D02*
X155850000Y-96650000D01*
X156600000Y-96900000D02*
X155850000Y-96900000D01*
X163800000Y-110400000D02*
X163800000Y-108300000D01*
X153306250Y-84356750D02*
X156356750Y-84356750D01*
X158000000Y-94500000D02*
X155850000Y-96650000D01*
X163800000Y-108300000D02*
X163800000Y-106400000D01*
X157900000Y-96800000D02*
X156000000Y-96800000D01*
X146931250Y-79156250D02*
X146931250Y-79306250D01*
X132700000Y-106400000D02*
X132700000Y-101900000D01*
X156356750Y-84356750D02*
X158000000Y-86000000D01*
%TO.N,+12V*%
X120250000Y-81750000D02*
X120250000Y-79500000D01*
X132656250Y-83106250D02*
X121606250Y-83106250D01*
X121606250Y-83106250D02*
X120250000Y-81750000D01*
D29*
%TO.N,RX_0*%
X133069544Y-108650000D02*
X127800000Y-103380456D01*
X140650000Y-108900000D02*
X141400000Y-108900000D01*
X140650000Y-108650000D02*
X141400000Y-108650000D01*
X159335000Y-102365000D02*
X175000000Y-102365000D01*
X146350000Y-103700000D02*
X158000000Y-103700000D01*
X141400000Y-108650000D02*
X146350000Y-103700000D01*
X140650000Y-108650000D02*
X133069544Y-108650000D01*
X158000000Y-103700000D02*
X159335000Y-102365000D01*
X127800000Y-103380456D02*
X127800000Y-90250000D01*
%TO.N,TX_0*%
X146450000Y-105600000D02*
X158300000Y-105600000D01*
X117300000Y-100000000D02*
X117300000Y-90450000D01*
X117300000Y-90450000D02*
X119500000Y-88250000D01*
X141400000Y-110650000D02*
X146450000Y-105600000D01*
X140650000Y-110650000D02*
X127950000Y-110650000D01*
X127950000Y-110650000D02*
X117300000Y-100000000D01*
X140650000Y-110650000D02*
X141400000Y-110650000D01*
X140650000Y-110900000D02*
X141400000Y-110900000D01*
X158995000Y-104905000D02*
X175000000Y-104905000D01*
X158300000Y-105600000D02*
X158995000Y-104905000D01*
%TO.N,GPIO_02*%
X146300000Y-99600000D02*
X157300000Y-99600000D01*
X166900000Y-75900000D02*
X167800000Y-76800000D01*
X140650000Y-100650000D02*
X145150000Y-100650000D01*
X157300000Y-99600000D02*
X159000000Y-97900000D01*
X159000000Y-76100000D02*
X159200000Y-75900000D01*
X137350000Y-101900000D02*
X138600000Y-100650000D01*
X135800000Y-101900000D02*
X137350000Y-101900000D01*
X145200000Y-100700000D02*
X146300000Y-99600000D01*
X159200000Y-75900000D02*
X166900000Y-75900000D01*
X159000000Y-97900000D02*
X159000000Y-76100000D01*
X145150000Y-100650000D02*
X145200000Y-100700000D01*
X167800000Y-76800000D02*
X167800000Y-86465000D01*
X167800000Y-86465000D02*
X175000000Y-93665000D01*
X138600000Y-100650000D02*
X140650000Y-100650000D01*
%TO.N,RX_H*%
X119500000Y-90250000D02*
X125260000Y-90250000D01*
D30*
%TO.N,GPIO_15*%
X135850000Y-97400000D02*
X135950000Y-97300000D01*
D29*
X137050000Y-98650000D02*
X135800000Y-97400000D01*
D30*
X135800000Y-97400000D02*
X135850000Y-97400000D01*
D29*
X140650000Y-98650000D02*
X137050000Y-98650000D01*
%TO.N,EN*%
X156100000Y-106400000D02*
X155850000Y-106650000D01*
X160200000Y-106900000D02*
X160700000Y-106400000D01*
X160700000Y-106400000D02*
X156100000Y-106400000D01*
D30*
%TO.N,Net-(U4-EN)*%
X144856250Y-84031250D02*
X145806250Y-84031250D01*
X135456250Y-83106250D02*
X140656250Y-83106250D01*
X143931250Y-83106250D02*
X144856250Y-84031250D01*
X140656250Y-83106250D02*
X143931250Y-83106250D01*
%TO.N,Net-(U4-BST)*%
X146756250Y-89956250D02*
X146881250Y-90081250D01*
X146756250Y-86306250D02*
X146756250Y-89956250D01*
%TO.N,Net-(U4-SW)*%
X150806250Y-88806250D02*
X147193750Y-85193750D01*
X146256251Y-85193750D02*
X147193750Y-85193750D01*
X145806250Y-89081250D02*
X144806250Y-90081250D01*
X145806250Y-86306250D02*
X145806250Y-89081250D01*
X145806250Y-85643751D02*
X146256251Y-85193750D01*
X145806250Y-86306250D02*
X145806250Y-85643751D01*
X153306250Y-88806250D02*
X150806250Y-88806250D01*
%TD*%
M02*
